<svg width="31" height="31" viewBox="0 0 31 31" fill="none" xmlns="http://www.w3.org/2000/svg">
<g clip-path="url(#clip0_282_2059)">
<path d="M13.6916 0.833275C10.4975 1.22296 7.42477 2.67947 5.12501 4.89618C4.24344 5.74581 3.68766 6.39741 3.0169 7.40036C1.78398 9.22739 0.947119 11.4249 0.602155 13.7375C0.474391 14.6254 0.493556 17.0785 0.634096 17.9537C1.08127 20.6623 2.12255 23.0643 3.72599 25.0957C4.19233 25.6898 5.55941 27.0569 6.15352 27.5232C8.17858 29.1203 10.6125 30.1744 13.2955 30.6151C14.2857 30.7749 16.7132 30.7749 17.7034 30.6151C20.9422 30.0849 23.67 28.737 25.9314 26.5522C28.4931 24.0736 30.0966 20.7581 30.4543 17.1871C30.5437 16.2544 30.499 14.3827 30.3521 13.4819C29.2725 6.69127 23.8425 1.5232 17.0199 0.801332C16.1958 0.718287 14.5476 0.731064 13.6916 0.833275ZM16.0489 7.73894C16.3427 7.87948 16.6877 8.28194 16.7707 8.57579C16.8155 8.72911 16.841 9.84066 16.841 11.6102V14.4082H19.639C21.4086 14.4082 22.5201 14.4338 22.6734 14.4785C22.9673 14.5616 23.3698 14.9065 23.5103 15.2004C23.5678 15.3218 23.6125 15.5645 23.6125 15.7498C23.6125 15.935 23.5678 16.1778 23.5103 16.2991C23.3698 16.593 22.9673 16.938 22.6734 17.021C22.5201 17.0657 21.4086 17.0913 19.639 17.0913H16.841V19.8829C16.841 21.6589 16.8155 22.7704 16.7707 22.9237C16.6877 23.2176 16.3427 23.62 16.0489 23.7606C15.7678 23.8947 15.2312 23.8947 14.9501 23.7606C14.6562 23.62 14.3113 23.2176 14.2282 22.9237C14.1835 22.7704 14.158 21.6589 14.158 19.8829V17.0913H11.3663C9.59038 17.0913 8.47883 17.0657 8.32551 17.021C8.03165 16.938 7.6292 16.593 7.48865 16.2991C7.3545 16.0181 7.3545 15.4815 7.48865 15.2004C7.6292 14.9065 8.03165 14.5616 8.32551 14.4785C8.47883 14.4338 9.59038 14.4082 11.3663 14.4082H14.158V11.6102C14.158 9.84066 14.1835 8.72911 14.2282 8.57579C14.3049 8.28832 14.6498 7.88587 14.9437 7.73894C15.2056 7.61117 15.7742 7.61117 16.0489 7.73894Z" fill="#F74682"/>
</g>
<defs>
<clipPath id="clip0_282_2059">
<rect width="30" height="30" fill="white" transform="translate(0.5 0.749023)"/>
</clipPath>
</defs>
</svg>
