<svg width="31" height="31" viewBox="0 0 31 31" fill="none" xmlns="http://www.w3.org/2000/svg">
<g clip-path="url(#clip0_158_2629)">
<path d="M13.6916 0.833214C10.4975 1.22289 7.42477 2.67941 5.12501 4.89612C4.24344 5.74575 3.68766 6.39735 3.0169 7.4003C1.78398 9.22733 0.947119 11.4249 0.602155 13.7374C0.474391 14.6254 0.493556 17.0785 0.634096 17.9536C1.08127 20.6622 2.12255 23.0642 3.72599 25.0957C4.19233 25.6898 5.55941 27.0568 6.15352 27.5232C8.17858 29.1202 10.6125 30.1743 13.2955 30.6151C14.2857 30.7748 16.7132 30.7748 17.7034 30.6151C20.9422 30.0849 23.67 28.7369 25.9314 26.5522C28.4931 24.0735 30.0966 20.7581 30.4543 17.1871C30.5437 16.2544 30.499 14.3826 30.3521 13.4819C29.2725 6.69121 23.8425 1.52314 17.0199 0.801271C16.1958 0.718225 14.5476 0.731003 13.6916 0.833214ZM16.0489 7.73888C16.3427 7.87942 16.6877 8.28188 16.7707 8.57573C16.8155 8.72905 16.841 9.8406 16.841 11.6101V14.4082H19.639C21.4086 14.4082 22.5201 14.4337 22.6734 14.4784C22.9673 14.5615 23.3698 14.9065 23.5103 15.2003C23.5678 15.3217 23.6125 15.5644 23.6125 15.7497C23.6125 15.935 23.5678 16.1777 23.5103 16.2991C23.3698 16.5929 22.9673 16.9379 22.6734 17.021C22.5201 17.0657 21.4086 17.0912 19.639 17.0912H16.841V19.8829C16.841 21.6588 16.8155 22.7704 16.7707 22.9237C16.6877 23.2175 16.3427 23.62 16.0489 23.7605C15.7678 23.8947 15.2312 23.8947 14.9501 23.7605C14.6562 23.62 14.3113 23.2175 14.2282 22.9237C14.1835 22.7704 14.158 21.6588 14.158 19.8829V17.0912H11.3663C9.59038 17.0912 8.47883 17.0657 8.32551 17.021C8.03165 16.9379 7.6292 16.5929 7.48865 16.2991C7.3545 16.018 7.3545 15.4814 7.48865 15.2003C7.6292 14.9065 8.03165 14.5615 8.32551 14.4784C8.47883 14.4337 9.59038 14.4082 11.3663 14.4082H14.158V11.6101C14.158 9.8406 14.1835 8.72905 14.2282 8.57573C14.3049 8.28826 14.6498 7.88581 14.9437 7.73888C15.2056 7.61111 15.7742 7.61111 16.0489 7.73888Z" fill="#9D9D9D"/>
</g>
<defs>
<clipPath id="clip0_158_2629">
<rect width="30" height="30" fill="white" transform="translate(0.5 0.749023)"/>
</clipPath>
</defs>
</svg>
