<svg width="17" height="18" viewBox="0 0 17 18" fill="none" xmlns="http://www.w3.org/2000/svg">
<path d="M1 12.3333H0.25H1ZM1.75 11.5C1.75 11.0858 1.41421 10.75 1 10.75C0.585786 10.75 0.25 11.0858 0.25 11.5H1.75ZM6 17.25C6.41421 17.25 6.75 16.9142 6.75 16.5C6.75 16.0858 6.41421 15.75 6 15.75V17.25ZM5.16667 16.5V15.75V16.5ZM6 2.25C6.41421 2.25 6.75 1.91421 6.75 1.5C6.75 1.08579 6.41421 0.75 6 0.75V2.25ZM0.25 6.5C0.25 6.91421 0.585787 7.25 1 7.25C1.41421 7.25 1.75 6.91421 1.75 6.5H0.25ZM16 5.66667H15.25H16ZM15.25 6.5C15.25 6.91421 15.5858 7.25 16 7.25C16.4142 7.25 16.75 6.91421 16.75 6.5H15.25ZM11 0.75C10.5858 0.75 10.25 1.08579 10.25 1.5C10.25 1.91421 10.5858 2.25 11 2.25V0.75ZM11.8333 1.5V0.75V1.5ZM11.8333 16.5V15.75V16.5ZM11 15.75C10.5858 15.75 10.25 16.0858 10.25 16.5C10.25 16.9142 10.5858 17.25 11 17.25V15.75ZM16.75 11.5C16.75 11.0858 16.4142 10.75 16 10.75C15.5858 10.75 15.25 11.0858 15.25 11.5H16.75ZM16 12.3333H16.75H16ZM13.7002 9.72279C14.0994 9.61222 14.3334 9.19899 14.2228 8.79981C14.1122 8.40062 13.699 8.16665 13.2998 8.27721L13.7002 9.72279ZM8.5 9.83333V10.5833V9.83333ZM3.70019 8.27721C3.30101 8.16665 2.88778 8.40062 2.77721 8.79981C2.66665 9.19899 2.90062 9.61222 3.29981 9.72279L3.70019 8.27721ZM1.75 12.3333L1.75 11.5H0.25L0.25 12.3333H1.75ZM6 15.75H5.16667V17.25H6V15.75ZM0.25 12.3333C0.25 15.0487 2.45127 17.25 5.16667 17.25V15.75C3.27969 15.75 1.75 14.2203 1.75 12.3333H0.25ZM5.16667 2.25H6V0.75H5.16667V2.25ZM1.75 6.5V5.66667H0.25V6.5H1.75ZM5.16667 0.75C2.45127 0.75 0.25 2.95127 0.25 5.66667H1.75C1.75 3.77969 3.27969 2.25 5.16667 2.25V0.75ZM15.25 5.66667V6.5H16.75V5.66667H15.25ZM11 2.25L11.8333 2.25V0.75L11 0.75V2.25ZM16.75 5.66667C16.75 2.95127 14.5487 0.75 11.8333 0.75V2.25C13.7203 2.25 15.25 3.77969 15.25 5.66667H16.75ZM11.8333 15.75H11V17.25H11.8333V15.75ZM15.25 11.5V12.3333H16.75V11.5H15.25ZM11.8333 17.25C14.5487 17.25 16.75 15.0487 16.75 12.3333H15.25C15.25 14.2203 13.7203 15.75 11.8333 15.75V17.25ZM13.5 9C13.2998 8.27721 13.2999 8.2772 13.2999 8.27719C13.2999 8.27719 13.2999 8.27718 13.2999 8.27718C13.2999 8.27719 13.2998 8.2772 13.2997 8.27723C13.2995 8.27729 13.2992 8.27739 13.2986 8.27755C13.2975 8.27786 13.2956 8.27836 13.2931 8.27906C13.288 8.28045 13.2801 8.28261 13.2696 8.28547C13.2484 8.29119 13.2166 8.29975 13.1751 8.31074C13.092 8.33271 12.9701 8.36438 12.8172 8.40251C12.5113 8.47884 12.0828 8.58067 11.5939 8.6824C10.6021 8.8888 9.41477 9.08333 8.5 9.08333L8.5 10.5833C9.57652 10.5833 10.8892 10.3612 11.8995 10.1509C12.4118 10.0443 12.8599 9.93783 13.1803 9.85791C13.3406 9.81791 13.4694 9.78447 13.5586 9.76088C13.6032 9.74908 13.638 9.73973 13.6619 9.73325C13.6739 9.73001 13.6831 9.72748 13.6895 9.72572C13.6927 9.72484 13.6953 9.72415 13.697 9.72366C13.6979 9.72342 13.6986 9.72322 13.6992 9.72307C13.6994 9.723 13.6996 9.72294 13.6998 9.72289C13.6999 9.72287 13.7 9.72284 13.7 9.72283C13.7001 9.72281 13.7002 9.72279 13.5 9ZM8.5 9.08333C7.58523 9.08333 6.39787 8.8888 5.40607 8.6824C4.91725 8.58067 4.48875 8.47884 4.18275 8.40251C4.02991 8.36438 3.90803 8.33271 3.82493 8.31074C3.78339 8.29975 3.75157 8.29119 3.73045 8.28547C3.71989 8.28261 3.712 8.28045 3.70692 8.27906C3.70438 8.27836 3.70254 8.27786 3.70141 8.27755C3.70085 8.27739 3.70046 8.27729 3.70026 8.27723C3.70016 8.2772 3.7001 8.27719 3.70009 8.27718C3.70008 8.27718 3.70011 8.27719 3.70011 8.27719C3.70015 8.2772 3.70019 8.27721 3.5 9C3.29981 9.72279 3.29988 9.72281 3.29996 9.72283C3.3 9.72284 3.3001 9.72287 3.30019 9.72289C3.30036 9.72294 3.30058 9.723 3.30084 9.72307C3.30137 9.72322 3.30208 9.72342 3.30297 9.72366C3.30475 9.72415 3.30725 9.72484 3.31046 9.72572C3.31689 9.72748 3.32614 9.73001 3.3381 9.73325C3.36203 9.73973 3.39679 9.74908 3.44141 9.76088C3.53063 9.78447 3.65936 9.81791 3.81969 9.85791C4.14006 9.93783 4.58819 10.0443 5.10046 10.1509C6.11083 10.3612 7.42348 10.5833 8.5 10.5833L8.5 9.08333Z" fill="black"/>
</svg>
