<svg width="187" height="187" viewBox="0 0 187 187" fill="none" xmlns="http://www.w3.org/2000/svg">
<path opacity="0.5" d="M54 3.76514H43.7982C21.7068 3.76514 3.79822 21.6737 3.79822 43.7651V54.2349" stroke="#D80E7A" stroke-width="6"/>
<path opacity="0.5" d="M133 3.76514H143.202C165.293 3.76514 183.202 21.6737 183.202 43.7651V54.2349" stroke="#D80E7A" stroke-width="6"/>
<path opacity="0.5" d="M54 183.235H43.7982C21.7068 183.235 3.79822 165.326 3.79822 143.235V132.765" stroke="#D80E7A" stroke-width="6"/>
<path opacity="0.5" d="M133 183.235H143.202C165.293 183.235 183.202 165.326 183.202 143.235V132.765" stroke="#D80E7A" stroke-width="6"/>
<ellipse cx="59.5" cy="67.7408" rx="7.5" ry="10.7401" fill="#D80E7A"/>
<ellipse cx="127.5" cy="67.7408" rx="7.5" ry="10.7401" fill="#D80E7A"/>
<path d="M64.1826 116.481C67.3787 120.266 78.3918 129.999 93.2094 129.999C108.202 129.999 118.761 121.708 122.817 116.481" stroke="#D80E7A" stroke-width="5" stroke-linecap="round"/>
</svg>
