<svg width="40" height="34" viewBox="0 0 40 34" fill="none" xmlns="http://www.w3.org/2000/svg">
<rect width="40" height="34" rx="10" fill="#D80E7A"/>
<path d="M17.0625 26.852C17.2985 26.896 17.4925 27.014 17.6445 27.206C17.7965 27.398 17.8725 27.618 17.8725 27.866C17.8725 28.09 17.8165 28.288 17.7045 28.46C17.5965 28.628 17.4385 28.76 17.2305 28.856C17.0225 28.952 16.7765 29 16.4925 29H14.6865V24.812H16.4145C16.6985 24.812 16.9425 24.858 17.1465 24.95C17.3545 25.042 17.5105 25.17 17.6145 25.334C17.7225 25.498 17.7765 25.684 17.7765 25.892C17.7765 26.136 17.7105 26.34 17.5785 26.504C17.4505 26.668 17.2785 26.784 17.0625 26.852ZM15.5265 26.54H16.2945C16.4945 26.54 16.6485 26.496 16.7565 26.408C16.8645 26.316 16.9185 26.186 16.9185 26.018C16.9185 25.85 16.8645 25.72 16.7565 25.628C16.6485 25.536 16.4945 25.49 16.2945 25.49H15.5265V26.54ZM16.3725 28.316C16.5765 28.316 16.7345 28.268 16.8465 28.172C16.9625 28.076 17.0205 27.94 17.0205 27.764C17.0205 27.584 16.9605 27.444 16.8405 27.344C16.7205 27.24 16.5585 27.188 16.3545 27.188H15.5265V28.316H16.3725ZM21.6799 25.676V29H20.8339V28.58C20.7259 28.724 20.5839 28.838 20.4079 28.922C20.2359 29.002 20.0479 29.042 19.8439 29.042C19.5839 29.042 19.3539 28.988 19.1539 28.88C18.9539 28.768 18.7959 28.606 18.6799 28.394C18.5679 28.178 18.5119 27.922 18.5119 27.626V25.676H19.3519V27.506C19.3519 27.77 19.4179 27.974 19.5499 28.118C19.6819 28.258 19.8619 28.328 20.0899 28.328C20.3219 28.328 20.5039 28.258 20.6359 28.118C20.7679 27.974 20.8339 27.77 20.8339 27.506V25.676H21.6799ZM25.6887 25.676L23.6307 30.572H22.7367L23.4567 28.916L22.1247 25.676H23.0667L23.9247 27.998L24.7947 25.676H25.6887Z" fill="white"/>
<g clip-path="url(#clip0_1442_1346)">
<path d="M22.5769 3.23904C22.4785 3.27419 22.3343 3.34451 22.2605 3.39373C22.1867 3.44294 21.0371 4.49412 19.7011 5.72459C16.9941 8.22419 17.0609 8.14685 17.0925 8.54763C17.1066 8.73044 17.1312 8.80427 17.2367 8.95193C17.4968 9.3281 17.8027 9.66209 17.9609 9.73943C18.1542 9.83787 18.4144 9.8449 18.6148 9.75349C18.7062 9.7113 19.5324 8.97302 20.8578 7.74959C22.025 6.67029 22.9812 5.81248 23.0093 5.81951C23.041 5.82654 23.9972 6.69138 25.1363 7.74607C26.2789 8.80076 27.2703 9.69373 27.3406 9.7324C27.5304 9.83435 27.9171 9.83084 28.0929 9.72185C28.2195 9.64099 28.6906 9.08552 28.8312 8.84998C28.9296 8.68123 28.9367 8.34724 28.8417 8.15388C28.789 8.04138 26.5742 5.96365 23.955 3.56951C23.6667 3.30584 23.4347 3.2074 23.0585 3.1863C22.83 3.17576 22.7175 3.18982 22.5769 3.23904Z" fill="white"/>
<path d="M20.9844 8.08353C19.9297 9.06087 18.984 9.91517 18.8855 9.98196C18.7836 10.0488 18.6957 10.1085 18.6922 10.112C18.6887 10.1156 18.6746 10.7589 18.6641 11.5394L18.6465 12.9632L18.3828 13.0195C17.9187 13.1214 17.6094 13.2269 16.8465 13.5503L16.1012 13.8667L15.9535 13.7683C15.732 13.6242 15.5387 13.6347 15.0676 13.8281C14.7863 13.9441 14.6914 14.0003 14.702 14.039C14.716 14.0917 16.9098 19.3898 16.9273 19.4109C16.9309 19.4179 17.1102 19.3511 17.3211 19.2632C17.7887 19.0628 17.9082 18.9468 17.9609 18.6445C17.9785 18.532 17.9996 18.5144 18.1895 18.4335C18.418 18.3421 18.3301 18.3456 19.7715 18.3632C20.2812 18.3702 20.6012 18.3562 20.9316 18.314C22.1094 18.1558 23.2484 17.8464 24.0957 17.4527C25.0238 17.0202 28.0508 14.9144 28.5605 14.3484C28.7574 14.1304 28.8418 13.8878 28.8383 13.5468C28.8383 13.0863 28.5816 12.7031 28.1492 12.5097C27.9664 12.4288 27.9066 12.4183 27.6289 12.4288L27.3125 12.4394V11.2968C27.3125 10.6675 27.2984 10.1367 27.2844 10.1156C27.2703 10.0945 27.207 10.0417 27.1437 10.0031C27.0805 9.96439 26.1418 9.11712 25.059 8.11868C23.4488 6.63157 23.0762 6.30462 22.9953 6.30462C22.918 6.30462 22.5348 6.64563 20.9844 8.08353ZM23.1219 8.31556C23.1465 8.34017 23.1641 8.45618 23.1641 8.59681V8.83587H23.2977C23.3715 8.83587 23.5121 8.87454 23.6105 8.92376C23.8461 9.04329 23.9797 9.23313 24.0008 9.48626C24.0148 9.65149 24.0078 9.6761 23.9375 9.71478C23.8215 9.77454 23.7055 9.68665 23.6773 9.51087C23.6633 9.41243 23.6211 9.34212 23.5473 9.27884C23.4453 9.19095 23.4207 9.18743 23.034 9.18743H22.6297L22.4926 9.32454C22.3695 9.44407 22.3555 9.47923 22.3555 9.6304C22.3555 9.82376 22.4434 9.99954 22.5734 10.0734C22.6191 10.098 22.8195 10.1261 23.0234 10.1402C23.2977 10.1542 23.4277 10.1788 23.5332 10.2316C23.8848 10.4144 24.0605 10.787 23.9727 11.1527C23.8988 11.4656 23.5367 11.7855 23.2625 11.789C23.1641 11.789 23.1641 11.789 23.1641 12.0316C23.1641 12.2952 23.1219 12.3656 22.9812 12.3445C22.8758 12.3304 22.8125 12.1968 22.8125 11.9788V11.7995L22.6367 11.782C22.3309 11.7503 22.0883 11.5359 22.0004 11.2159C21.9582 11.0577 21.9828 10.9593 22.0777 10.9101C22.1691 10.8574 22.2781 10.9206 22.3062 11.0437C22.3836 11.3952 22.4504 11.4374 22.9566 11.4374C23.2977 11.4374 23.3609 11.4269 23.4523 11.3636C23.6457 11.2265 23.7055 10.9699 23.6 10.7449C23.5051 10.5515 23.4102 10.5128 22.9918 10.4882C22.7176 10.4706 22.584 10.446 22.4785 10.3933C22.032 10.1613 21.8809 9.62337 22.1551 9.21907C22.2746 9.03977 22.5102 8.87806 22.6895 8.84993L22.8477 8.82884V8.59329C22.8477 8.34368 22.8828 8.27337 23.0059 8.27337C23.048 8.27337 23.0973 8.29095 23.1219 8.31556ZM27.8891 12.8507C28.0895 12.9105 28.3496 13.1777 28.4023 13.3745C28.4516 13.5503 28.427 13.7824 28.3531 13.93C28.2758 14.0742 28.107 14.2253 27.4391 14.7386C26.198 15.6913 24.7074 16.6792 23.9551 17.0449C22.7211 17.646 20.8508 18.0292 19.5254 17.9554C18.6852 17.9097 18.3969 17.9202 18.1543 18.0081C18.0383 18.0503 17.9188 18.0925 17.8906 18.1031C17.8484 18.1171 17.6656 17.6988 17.075 16.2292C16.6566 15.1886 16.3086 14.3167 16.3016 14.2921C16.291 14.2359 17.3879 13.7542 17.9117 13.5855C18.5832 13.364 19.4797 13.2409 20.0879 13.2796C20.5555 13.3113 20.9738 13.4027 21.5363 13.5925C22.5594 13.9441 23.0762 13.9652 23.9445 13.7015C24.4262 13.5538 24.5422 13.5609 24.7145 13.7331C24.8551 13.8738 24.9219 14.0284 24.9219 14.2253C24.9219 14.4081 24.8059 14.5874 24.5562 14.7984C24.057 15.2202 23.702 15.3187 22.7316 15.3222C22.0672 15.3222 22.0426 15.3292 22.0391 15.5015C22.0391 15.6562 22.1094 15.6949 22.4785 15.73C22.8934 15.7687 23.4594 15.7265 23.9023 15.621C24.4262 15.4945 25.0273 15.048 25.2383 14.6296C25.2945 14.5101 25.3438 14.38 25.3438 14.3413C25.3438 14.2675 25.6285 14.0566 26.8906 13.1917C27.4637 12.798 27.5762 12.7593 27.8891 12.8507Z" fill="white"/>
<path d="M13.5487 14.4644C13.1444 14.6367 12.6381 14.8511 12.4237 14.9425C12.2127 15.0304 11.9737 15.15 11.8963 15.2027C11.3514 15.5718 11.0596 16.2468 11.1686 16.8867C11.2213 17.1855 12.2057 19.5832 12.3991 19.8679C12.6381 20.23 13.1127 20.5183 13.5592 20.5746C13.8088 20.6062 14.1815 20.5746 14.3573 20.5078C14.5823 20.4234 16.5721 19.5832 16.5967 19.5621C16.6389 19.5269 14.396 14.1621 14.3362 14.155C14.3081 14.1515 13.9565 14.2921 13.5487 14.4644Z" fill="white"/>
</g>
<defs>
<clipPath id="clip0_1442_1346">
<rect width="18" height="18" fill="white" transform="translate(11 3)"/>
</clipPath>
</defs>
</svg>
