<svg width="15" height="16" viewBox="0 0 15 16" fill="none" xmlns="http://www.w3.org/2000/svg">
<path d="M1.51654 1.08795C1.43451 1.10709 1.26498 1.17545 1.13373 1.23834C0.797397 1.40514 0.548569 1.65944 0.381772 2.0067C0.313413 2.14889 0.245054 2.32936 0.228647 2.40866C0.206772 2.50983 0.198569 3.94537 0.198569 7.11998C0.198569 12.1868 0.182163 11.7794 0.381772 11.9161C0.537632 12.02 0.750913 12.0145 0.909507 11.8997C0.975132 11.8532 1.57123 11.361 2.23568 10.8059L3.44701 9.79694H6.7556C9.02786 9.79694 10.1134 9.78873 10.2118 9.76686C10.2911 9.75045 10.4716 9.68209 10.6138 9.61373C10.972 9.44147 11.2181 9.19538 11.3904 8.83717C11.4587 8.69498 11.5271 8.51452 11.5435 8.43522C11.5845 8.23288 11.5845 2.611 11.5435 2.40866C11.5271 2.32936 11.4587 2.14889 11.3904 2.0067C11.2181 1.6485 10.972 1.40241 10.6138 1.23014C10.4716 1.16178 10.2911 1.09342 10.2118 1.07701C9.9849 1.03053 1.71068 1.03873 1.51654 1.08795ZM10.1326 1.9985C10.3404 2.08327 10.5372 2.28014 10.622 2.48795L10.6849 2.64655V5.42194V8.19733L10.622 8.35592C10.5372 8.56374 10.3404 8.76061 10.1326 8.84538L9.97396 8.90827L6.52591 8.92194L3.07787 8.93561L2.97122 9.01764C2.9138 9.06139 2.46263 9.43327 1.96771 9.84616L1.07357 10.5926L1.07904 6.61959L1.08724 2.64655L1.15013 2.49069C1.26498 2.20631 1.52474 2.00397 1.83646 1.94928C1.90482 1.93834 3.76419 1.93014 5.9681 1.93287L9.97396 1.93561L10.1326 1.9985Z" fill="#F74682" stroke="#F74682" stroke-width="0.3"/>
<path d="M3.02012 3.72668C2.88887 3.80872 2.82324 3.93176 2.82324 4.1095C2.82324 4.28723 2.88887 4.41028 3.02012 4.49231C3.10762 4.547 3.16504 4.547 5.88574 4.547C8.60645 4.547 8.66387 4.547 8.75137 4.49231C8.88262 4.41028 8.94824 4.28723 8.94824 4.1095C8.94824 3.93176 8.88262 3.80872 8.75137 3.72668C8.66387 3.672 8.60645 3.672 5.88574 3.672C3.16504 3.672 3.10762 3.672 3.02012 3.72668Z" fill="#F74682" stroke="#F74682" stroke-width="0.3"/>
<path d="M3.02012 5.47668C2.88887 5.55872 2.82324 5.68176 2.82324 5.8595C2.82324 6.03723 2.88887 6.16028 3.02012 6.24231C3.10762 6.29426 3.1623 6.297 5.01074 6.297C6.85918 6.297 6.91387 6.29426 7.00137 6.24231C7.13262 6.16028 7.19824 6.03723 7.19824 5.8595C7.19824 5.68176 7.13262 5.55872 7.00137 5.47668C6.91387 5.42473 6.85918 5.422 5.01074 5.422C3.1623 5.422 3.10762 5.42473 3.02012 5.47668Z" fill="#F74682" stroke="#F74682" stroke-width="0.3"/>
<path d="M12.2076 4.60167C12.0764 4.6837 12.0107 4.80675 12.0107 4.98448C12.0107 5.25519 12.1557 5.40284 12.4592 5.43566C12.842 5.47941 13.1182 5.67355 13.2467 5.988L13.3096 6.14659L13.3178 9.90089C13.3205 11.9626 13.3178 13.6525 13.3096 13.6525C13.3014 13.6525 13.0197 13.4337 12.6861 13.1657C12.3525 12.8978 12.0053 12.6243 11.9178 12.556L11.7564 12.4357L8.52715 12.422L5.29785 12.4083L5.13926 12.3454C4.92598 12.2579 4.73457 12.0638 4.65527 11.856C4.60605 11.7302 4.59238 11.6181 4.57871 11.3228C4.56504 10.9044 4.5377 10.8251 4.37637 10.7267C4.25332 10.6528 4.01816 10.6528 3.89512 10.7267C3.72285 10.8333 3.69824 10.9099 3.69824 11.3747C3.69824 11.8806 3.72285 12.0064 3.88145 12.3372C4.05371 12.6954 4.2998 12.9415 4.65801 13.1138C4.8002 13.1821 4.98066 13.2505 5.05996 13.2669C5.1584 13.2888 6.18379 13.297 8.29746 13.297H11.3873L12.4455 14.1419C13.0252 14.604 13.5283 14.9978 13.5611 15.0169C13.6705 15.0743 13.9002 15.0552 14.015 14.9786C14.2146 14.8419 14.1982 15.2247 14.1982 10.4013C14.1982 7.38526 14.19 6.00987 14.1682 5.9087C14.1518 5.8294 14.0834 5.64894 14.015 5.50675C13.8428 5.14855 13.5967 4.90245 13.2385 4.73019C12.9459 4.588 12.7736 4.54698 12.4947 4.54698C12.3471 4.54698 12.276 4.56066 12.2076 4.60167Z" fill="#F74682" stroke="#F74682" stroke-width="0.3"/>
</svg>
