<svg width="25" height="26" viewBox="0 0 25 26" fill="none" xmlns="http://www.w3.org/2000/svg">
<path fill-rule="evenodd" clip-rule="evenodd" d="M23.6132 17.6587C26.6334 12.7714 24.1784 6.74976 21.3388 3.91019C16.4573 -0.971365 8.54272 -0.971365 3.66117 3.91019C-1.22039 8.79174 -1.22039 16.7063 3.66117 21.5879C6.62165 24.5483 12.5336 26.8938 17.4102 23.8632C17.6803 23.6953 17.8153 23.6114 17.9184 23.5704C18.1149 23.4921 18.2657 23.4691 18.4765 23.4853C18.5871 23.4938 18.7121 23.5262 18.9619 23.5909C20.5341 23.9984 21.3204 24.2022 21.8867 24.087C22.8697 23.8869 23.6379 23.1187 23.838 22.1358C23.9532 21.5694 23.7495 20.7833 23.3419 19.211C23.2772 18.9612 23.2448 18.8362 23.2363 18.726C23.22 18.5152 23.2425 18.3661 23.3204 18.1695C23.3611 18.0666 23.4451 17.9307 23.6132 17.6587ZM7.32239 9.13387C6.80462 9.13387 6.38489 9.55361 6.38489 10.0714C6.38489 10.5891 6.80462 11.0089 7.32239 11.0089H17.3224C17.8402 11.0089 18.2599 10.5891 18.2599 10.0714C18.2599 9.55361 17.8402 9.13387 17.3224 9.13387H7.32239ZM7.32239 14.1339C6.80462 14.1339 6.38489 14.5536 6.38489 15.0714C6.38489 15.5891 6.80462 16.0089 7.32239 16.0089H17.3224C17.8402 16.0089 18.2599 15.5891 18.2599 15.0714C18.2599 14.5536 17.8402 14.1339 17.3224 14.1339H7.32239Z" fill="#9D9D9D"/>
</svg>
