<svg width="20" height="18" viewBox="0 0 20 18" fill="none" xmlns="http://www.w3.org/2000/svg">
<path d="M9.49045 1.12878C8.88927 1.20613 8.08769 1.52957 7.60604 1.8952C7.3072 2.12372 6.91344 2.53858 6.71305 2.83741L6.55484 3.07648L6.28062 2.8128C4.73019 1.33621 2.18482 1.80379 1.28129 3.73743C1.05628 4.21908 0.989484 4.5601 1.00706 5.1859C1.02113 5.6781 1.02816 5.73435 1.14418 6.06483C1.3059 6.52538 1.51332 6.87344 1.82271 7.19688C2.23404 7.63283 2.70515 7.92112 3.26766 8.08987C3.62626 8.19534 4.33643 8.21995 4.72668 8.1426C5.30677 8.02659 5.82006 7.75588 6.27007 7.33048C6.43179 7.17579 6.57242 7.0668 6.57945 7.09141C6.62164 7.20743 6.96618 7.64689 7.20173 7.88596C7.62713 8.30784 8.22128 8.66996 8.78028 8.84575L8.98068 8.90903V11.4052V13.9048L8.25293 13.1771C7.4197 12.3474 7.35994 12.3087 6.94157 12.3052C6.61812 12.3052 6.3896 12.4001 6.19624 12.6146C6.00288 12.8255 5.94662 12.9837 5.94662 13.2896C5.94311 13.5076 5.96069 13.5849 6.03452 13.7291C6.15054 13.9505 8.77325 16.5733 9.01583 16.7104C9.35334 16.9037 9.43772 16.9108 11.8319 16.9108C13.1855 16.9108 14.1066 16.8967 14.2226 16.8756C14.8414 16.7561 15.3195 16.2815 15.4496 15.6592C15.4742 15.5432 15.4847 15.0088 15.4777 14.165L15.4671 12.8501L15.3687 12.6497C15.1894 12.2841 14.8589 12.0767 14.4652 12.0802C14.3386 12.0837 14.1769 12.1083 14.1066 12.14L13.973 12.1962V12.0626C13.973 11.9853 13.9273 11.8411 13.864 11.7146C13.6249 11.2329 13.0835 11.0325 12.5597 11.2329C12.5175 11.2505 12.5034 11.2153 12.4893 11.0466C12.4542 10.6774 12.2643 10.3997 11.9268 10.2344C11.6843 10.1114 11.3924 10.0903 11.1534 10.1747L11.0198 10.2239V9.56646V8.90903L11.2764 8.82817C11.8249 8.64887 12.3839 8.30081 12.8163 7.86486C13.0413 7.63986 13.3788 7.20391 13.421 7.09141C13.428 7.0668 13.5511 7.16172 13.6952 7.29884C14.0152 7.60119 14.212 7.7383 14.5812 7.91057C14.9714 8.08987 15.2527 8.15667 15.7203 8.18128C16.3144 8.21292 16.8137 8.11096 17.3129 7.85783C18.118 7.45353 18.7262 6.66953 18.9336 5.78005C18.9969 5.49528 19.0075 5.37926 18.9934 4.94683C18.9758 4.52846 18.9582 4.39838 18.8774 4.14877C18.5961 3.27336 18.0582 2.64756 17.2602 2.26435C16.7644 2.02177 16.4726 1.95848 15.889 1.95848C15.4953 1.95848 15.3406 1.97255 15.1156 2.03232C14.5601 2.18349 13.973 2.52451 13.6144 2.91124L13.4491 3.08703L13.2874 2.84444C13.087 2.53858 12.6933 2.12372 12.3944 1.8952C12.0921 1.66668 11.4663 1.3573 11.0901 1.25183C10.5663 1.10417 10.0284 1.06198 9.49045 1.12878ZM10.8018 1.72293C11.9901 2.01122 12.9569 2.93233 13.3015 4.10658C13.5265 4.86949 13.4737 5.69568 13.1538 6.43397C13.0448 6.6871 12.7495 7.17227 12.7073 7.17227C12.6968 7.17227 12.6616 7.10196 12.63 7.01406C12.4858 6.62734 12.1589 6.26874 11.7757 6.07186C11.396 5.88201 11.3186 5.87146 10.0002 5.87146C9.09669 5.87146 8.74161 5.88552 8.61153 5.92068C8.3584 5.98748 8.03847 6.15623 7.84862 6.32499C7.65877 6.49374 7.41619 6.84883 7.35642 7.03867C7.33533 7.1125 7.3072 7.17227 7.29665 7.17227C7.25095 7.17227 6.95915 6.69062 6.84664 6.43046C6.6357 5.94178 6.57945 5.66755 6.57594 5.08043C6.57594 4.63745 6.58648 4.50737 6.65328 4.25775C6.88883 3.38234 7.40213 2.66163 8.11933 2.19404C8.56231 1.90575 9.05802 1.72293 9.63108 1.63856C9.85257 1.60691 10.5206 1.65262 10.8018 1.72293ZM4.74425 2.54561C5.26106 2.68272 5.83412 3.0589 6.17163 3.4843L6.28413 3.62493L6.20679 3.88509C5.97827 4.65503 5.97123 5.42848 6.18921 6.18084C6.30171 6.56406 6.27358 6.66249 6.12944 6.39882C5.97827 6.12108 5.76732 5.92068 5.46849 5.77302L5.20481 5.64294H4.11494H3.02156L2.79304 5.75193C2.51178 5.88552 2.2692 6.10701 2.11099 6.37421C1.99498 6.57109 1.99146 6.5746 1.94224 6.49374C1.66802 6.07889 1.52387 5.59021 1.52387 5.06988C1.52387 4.61284 1.59067 4.33158 1.80161 3.90267C1.93872 3.6179 2.01255 3.51946 2.27975 3.25226C2.83523 2.69678 3.45399 2.44717 4.19932 2.47881C4.38214 2.48584 4.62824 2.51748 4.74425 2.54561ZM16.5219 2.54561C16.8769 2.64053 17.3445 2.89015 17.6047 3.13273C18.1883 3.66712 18.4731 4.29994 18.4731 5.06285C18.4731 5.57263 18.3606 5.97693 18.1004 6.42694L18.009 6.57812L17.8895 6.37421C17.7313 6.10701 17.4887 5.88552 17.2074 5.75193L16.9789 5.64294H15.8855H14.7956L14.532 5.77302C14.2331 5.92068 14.0222 6.12108 13.871 6.39882C13.7339 6.64843 13.6952 6.56406 13.7972 6.23709C14.0257 5.49177 14.0257 4.66206 13.7937 3.88509L13.7163 3.62493L13.8288 3.4843C14.2226 2.98859 14.8554 2.60889 15.4777 2.49639C15.7062 2.4542 16.2687 2.48232 16.5219 2.54561ZM5.23997 6.24764C5.43685 6.35311 5.59857 6.52538 5.69701 6.73281C5.81654 6.98594 5.806 7.04571 5.63373 7.17579C5.41224 7.34103 4.9552 7.54494 4.66691 7.60822C4.31885 7.68556 3.85127 7.68205 3.51024 7.59416C3.19735 7.51681 2.72976 7.29884 2.55046 7.14766L2.43092 7.04571L2.48717 6.85234C2.57858 6.54999 2.83874 6.27928 3.14461 6.18436C3.19383 6.1703 3.65087 6.15975 4.16416 6.16327C5.04661 6.1703 5.10286 6.17381 5.23997 6.24764ZM17.0176 6.24764C17.232 6.36366 17.4465 6.62031 17.5098 6.84883L17.566 7.04571L17.45 7.14415C17.3832 7.19688 17.2039 7.30587 17.0492 7.38321C16.3215 7.74885 15.5234 7.75939 14.7992 7.41837C14.4265 7.2461 14.2191 7.08789 14.2191 6.98594C14.2191 6.86641 14.3738 6.57109 14.5038 6.43749C14.5706 6.37069 14.7042 6.27928 14.7992 6.23358C14.9714 6.15272 14.989 6.15272 15.9242 6.15975C16.8277 6.1703 16.8805 6.17381 17.0176 6.24764ZM11.4698 6.51484C11.86 6.71875 12.1026 7.02461 12.2046 7.43595C12.2679 7.69963 12.2925 7.65744 11.9339 7.90705C11.7194 8.05471 11.4628 8.19182 11.2026 8.29378L11.0303 8.36409L11.0092 8.13557C10.953 7.55548 10.5909 7.1793 10.0494 7.14415C9.83499 7.13008 9.76819 7.14063 9.60999 7.21446C9.21623 7.39728 9.0299 7.66799 8.99122 8.11448L8.97013 8.36409L8.79083 8.29027C8.52012 8.18479 8.1791 7.99846 7.95057 7.82971C7.75018 7.68556 7.75018 7.68205 7.77127 7.54142C7.85214 7.03867 8.20019 6.62734 8.69239 6.44804C8.79434 6.40936 9.10021 6.40233 10.053 6.40936L11.2835 6.4164L11.4698 6.51484ZM10.2393 7.73478C10.3061 7.77697 10.3834 7.86838 10.4221 7.95627C10.4854 8.09339 10.4924 8.20237 10.4924 9.67545C10.4924 11.247 10.4924 11.247 10.5698 11.3208C10.728 11.4685 10.967 11.3771 11.0022 11.152C11.0725 10.7231 11.4135 10.5227 11.7264 10.7337C11.9409 10.8778 11.969 10.9798 11.969 11.6618C11.969 12.2243 11.9761 12.2771 12.0393 12.3404C12.1905 12.4915 12.4964 12.3861 12.4964 12.1821C12.4964 11.7075 13.1081 11.5142 13.3648 11.9079C13.4175 11.9853 13.4316 12.1083 13.4456 12.59C13.4667 13.2615 13.4913 13.3248 13.7269 13.3248C13.8851 13.3248 13.9554 13.2544 13.9906 13.0611C14.0257 12.8536 14.1101 12.7341 14.2824 12.6497C14.416 12.5865 14.4546 12.5829 14.5706 12.6181C14.7324 12.6673 14.9117 12.8572 14.9398 13.0154C14.9503 13.0787 14.9574 13.6834 14.9503 14.3619C14.9398 15.5326 14.9363 15.5994 14.866 15.7541C14.757 15.9861 14.5636 16.1865 14.3492 16.2815L14.1663 16.3658H11.8636C9.69085 16.3658 9.55022 16.3623 9.38498 16.299C9.23381 16.2428 9.02638 16.0494 7.88378 14.9138C6.39663 13.4337 6.3896 13.4232 6.50211 13.1314C6.56539 12.9626 6.64977 12.8853 6.83258 12.8326C7.07868 12.7622 7.14196 12.8115 8.17206 13.838C9.07911 14.7416 9.14943 14.8013 9.26896 14.8013C9.34279 14.8013 9.41311 14.7767 9.44123 14.7416C9.48342 14.6959 9.49397 14.1052 9.50803 11.3419C9.52561 8.19182 9.52913 7.98791 9.58889 7.90002C9.73655 7.67502 10.0213 7.6047 10.2393 7.73478Z" fill="#252B5C" stroke="#252B5C" stroke-width="0.3"/>
<path d="M9.70847 2.46124C9.38151 2.54562 9.10728 2.76008 8.94204 3.06594L8.82251 3.28743V3.81479C8.82251 4.28941 8.82954 4.35621 8.90337 4.50387C9.0229 4.74997 9.19869 4.93278 9.44479 5.06638C9.65222 5.17888 9.68737 5.18591 10.0003 5.18591C10.3132 5.18591 10.3483 5.17888 10.5558 5.06638C10.8019 4.93278 10.9776 4.74997 11.0972 4.50387C11.171 4.35621 11.178 4.28941 11.178 3.81479V3.28743L11.0585 3.06594C10.8511 2.68625 10.5065 2.46828 10.0776 2.44367C9.94753 2.43663 9.7823 2.44367 9.70847 2.46124ZM10.2393 3.00618C10.5558 3.13977 10.6683 3.35072 10.6683 3.81479C10.6683 4.17691 10.619 4.33511 10.4503 4.4898C10.3413 4.59176 10.1339 4.67614 9.98972 4.67614C9.828 4.67614 9.58542 4.54254 9.45885 4.38433C9.35338 4.25425 9.34987 4.22964 9.33932 3.86752C9.32877 3.54408 9.3358 3.47025 9.39557 3.35423C9.56784 3.01672 9.91589 2.87258 10.2393 3.00618Z" fill="#252B5C" stroke="#252B5C" stroke-width="0.3"/>
<path d="M3.92848 2.99211C3.47495 3.08001 3.17612 3.42806 3.1269 3.93784C3.07065 4.49332 3.2605 4.9152 3.65074 5.1156C3.83004 5.20701 3.89684 5.22107 4.12888 5.22107C4.36091 5.22107 4.42068 5.20349 4.58592 5.11208C4.96561 4.89762 5.13437 4.54605 5.10624 4.01167C5.08866 3.65307 5.0078 3.44564 4.81444 3.25931C4.57537 3.02727 4.25192 2.92883 3.92848 2.99211ZM4.37497 3.57924C4.42419 3.61439 4.49099 3.69877 4.52263 3.76557C4.59998 3.90971 4.60701 4.2437 4.5367 4.40543C4.38201 4.76754 3.93551 4.80973 3.71754 4.47926C3.62613 4.33511 3.62965 3.89213 3.72457 3.7269C3.86168 3.49134 4.16052 3.42103 4.37497 3.57924Z" fill="#252B5C" stroke="#252B5C" stroke-width="0.3"/>
<path d="M15.6851 2.99206C15.33 3.04831 15.0101 3.36121 14.9222 3.73387C14.8659 3.95888 14.894 4.47217 14.9714 4.65147C15.0487 4.83077 15.2562 5.05226 15.4284 5.14015C15.5128 5.18234 15.6675 5.22102 15.8046 5.23156C16.2406 5.2632 16.5851 5.06632 16.7749 4.68663C16.8628 4.50733 16.8699 4.45108 16.8699 4.11708C16.8699 3.8077 16.8558 3.71278 16.789 3.56512C16.6027 3.14323 16.1597 2.9112 15.6851 2.99206ZM16.1386 3.56863C16.2863 3.66356 16.346 3.82528 16.346 4.11708C16.3425 4.35264 16.332 4.39834 16.2476 4.51084C16.1948 4.58116 16.0999 4.65499 16.0261 4.67608C15.7694 4.76046 15.4812 4.58116 15.4284 4.30342C15.3933 4.10302 15.4319 3.80419 15.5093 3.69872C15.6605 3.49129 15.9347 3.43504 16.1386 3.56863Z" fill="#252B5C" stroke="#252B5C" stroke-width="0.3"/>
</svg>
