<svg width="73" height="73" viewBox="0 0 73 73" fill="none" xmlns="http://www.w3.org/2000/svg">
<g filter="url(#filter0_d_469_1771)">
<circle cx="32.5" cy="28.5" r="21" stroke="#1DE8B4"/>
</g>
<path d="M40.0279 21.7929C39.558 21.8724 39.8182 21.6302 34.6671 26.7741L29.9064 31.5312L27.7267 29.3587C25.7096 27.3453 25.5325 27.179 25.3228 27.0886C24.6613 26.7994 23.8841 27.0272 23.4901 27.6236C23.3238 27.8694 23.2551 28.1116 23.2551 28.4406C23.2551 28.7587 23.3238 29.0009 23.472 29.2322C23.5299 29.3226 24.8095 30.6312 26.3169 32.1349C29.31 35.1244 29.1762 35.0087 29.6895 35.0882C29.9932 35.1388 30.2751 35.0918 30.5896 34.9473C30.8137 34.8424 31.1282 34.5352 36.1673 29.4961C41.2967 24.3667 41.51 24.1462 41.6257 23.904C41.7377 23.6654 41.7449 23.6292 41.7449 23.2533C41.7449 22.8846 41.7377 22.8376 41.6329 22.6207C41.3473 22.017 40.6966 21.6809 40.0279 21.7929Z" fill="#1DE8B4"/>
<defs>
<filter id="filter0_d_469_1771" x="0" y="0" width="73" height="73" filterUnits="userSpaceOnUse" color-interpolation-filters="sRGB">
<feFlood flood-opacity="0" result="BackgroundImageFix"/>
<feColorMatrix in="SourceAlpha" type="matrix" values="0 0 0 0 0 0 0 0 0 0 0 0 0 0 0 0 0 0 127 0" result="hardAlpha"/>
<feOffset dx="4" dy="8"/>
<feGaussianBlur stdDeviation="7.5"/>
<feColorMatrix type="matrix" values="0 0 0 0 0.94902 0 0 0 0 0.231373 0 0 0 0 0.333333 0 0 0 0.2 0"/>
<feBlend mode="normal" in2="BackgroundImageFix" result="effect1_dropShadow_469_1771"/>
<feBlend mode="normal" in="SourceGraphic" in2="effect1_dropShadow_469_1771" result="shape"/>
</filter>
</defs>
</svg>
