<svg width="73" height="73" viewBox="0 0 73 73" fill="none" xmlns="http://www.w3.org/2000/svg">
<g filter="url(#filter0_d_469_1760)">
<circle cx="32.5" cy="28.5" r="21" stroke="#FF0019"/>
</g>
<g clip-path="url(#clip0_469_1760)">
<path d="M24.7958 20.0603C24.5837 20.1299 24.4743 20.1995 24.3252 20.3519C24.09 20.5872 24.0336 20.7396 24.0336 21.1273C24.0336 21.4089 24.0469 21.4851 24.1132 21.6243C24.1761 21.7569 24.8521 22.4527 27.5494 25.1533L30.9093 28.5166L27.5626 31.8633C23.8149 35.611 24.0436 35.3525 24.0237 35.8628C24.0104 36.1179 24.0204 36.171 24.0999 36.3499C24.2026 36.5785 24.4379 36.8204 24.6566 36.9165C24.7626 36.9662 24.872 36.9828 25.1106 36.9828C25.6606 36.9828 25.3491 37.2545 29.1465 33.4605L32.4999 30.1071L35.8565 33.4605C39.6506 37.2545 39.3391 36.9828 39.8892 36.9828C40.1277 36.9828 40.2371 36.9662 40.3431 36.9165C40.5618 36.8204 40.7971 36.5785 40.8998 36.3499C40.9793 36.171 40.9893 36.1179 40.976 35.8628C40.9561 35.3525 41.1848 35.611 37.4371 31.8633L34.0904 28.5166L37.4504 25.1533C40.1476 22.4527 40.8236 21.7569 40.8865 21.6243C40.9528 21.4851 40.9661 21.4089 40.9661 21.1273C40.9661 20.8523 40.9528 20.7694 40.8932 20.6468C40.7905 20.4381 40.5684 20.2227 40.3531 20.1199C40.1973 20.0471 40.1277 20.0338 39.8726 20.0338C39.6274 20.0338 39.5445 20.0504 39.4087 20.1133C39.2761 20.1763 38.5836 20.8489 35.8731 23.5595L32.4999 26.9261L29.1299 23.5595C26.3631 20.7992 25.7269 20.1796 25.591 20.1166C25.3889 20.0239 24.9946 19.9973 24.7958 20.0603Z" fill="#FF0019"/>
</g>
<defs>
<filter id="filter0_d_469_1760" x="0" y="0" width="73" height="73" filterUnits="userSpaceOnUse" color-interpolation-filters="sRGB">
<feFlood flood-opacity="0" result="BackgroundImageFix"/>
<feColorMatrix in="SourceAlpha" type="matrix" values="0 0 0 0 0 0 0 0 0 0 0 0 0 0 0 0 0 0 127 0" result="hardAlpha"/>
<feOffset dx="4" dy="8"/>
<feGaussianBlur stdDeviation="7.5"/>
<feColorMatrix type="matrix" values="0 0 0 0 0.94902 0 0 0 0 0.231373 0 0 0 0 0.333333 0 0 0 0.2 0"/>
<feBlend mode="normal" in2="BackgroundImageFix" result="effect1_dropShadow_469_1760"/>
<feBlend mode="normal" in="SourceGraphic" in2="effect1_dropShadow_469_1760" result="shape"/>
</filter>
<clipPath id="clip0_469_1760">
<rect width="16.9656" height="16.9656" fill="white" transform="translate(24.0171 20.0173)"/>
</clipPath>
</defs>
</svg>
