<svg width="20" height="18" viewBox="0 0 20 18" fill="none" xmlns="http://www.w3.org/2000/svg">
<path d="M5.76562 1.46094C3.55469 2.05859 1.69922 2.57031 1.64844 2.60156C1.59375 2.62891 1.50391 2.72266 1.44922 2.80469L1.34766 2.96094L1.33594 9.65234L1.32812 16.3438H0.664062H0V16.9883V17.6328H10H20V16.9883V16.3438H15.332H10.6641V11.1094V5.875H14.0039H17.3438V9.41016V12.9453H18.0078H18.6719V9.02734C18.6719 5.30078 18.668 5.10547 18.5977 4.95312C18.5156 4.76953 18.375 4.64844 18.1758 4.58203C18.0703 4.54688 17.0312 4.54297 13.9492 4.55469C10.1094 4.57031 9.85547 4.57422 9.71484 4.64062C9.63672 4.67969 9.53125 4.76953 9.48047 4.83594L9.39453 4.95703L9.38281 10.6523L9.375 16.3438H6.01562H2.65625L2.66406 10.0078L2.67578 3.67188L5.97656 2.78125C7.79297 2.29297 9.30078 1.89062 9.32812 1.89062C9.36328 1.89062 9.375 2.0625 9.375 2.61328V3.33594H10.0195H10.6641V2.08203C10.6641 0.695312 10.6602 0.660156 10.418 0.480469C10.3203 0.410156 10.2383 0.386719 10.0391 0.378906C9.81641 0.371094 9.32031 0.496094 5.76562 1.46094Z" fill="#252B5C"/>
<path d="M4.45312 5.25V5.91406H5.99609H7.53906V5.25V4.58594H5.99609H4.45312V5.25Z" fill="#252B5C"/>
<path d="M4.45312 8.17969V8.84375H5.99609H7.53906V8.17969V7.51562H5.99609H4.45312V8.17969Z" fill="#252B5C"/>
<path d="M12.4609 8.17969V8.84375H14.0039H15.5469V8.17969V7.51562H14.0039H12.4609V8.17969Z" fill="#252B5C"/>
<path d="M4.45312 11.0703V11.7344H5.99609H7.53906V11.0703V10.4062H5.99609H4.45312V11.0703Z" fill="#252B5C"/>
<path d="M12.4609 11.0703V11.7344H14.0039H15.5469V11.0703V10.4062H14.0039H12.4609V11.0703Z" fill="#252B5C"/>
<path d="M4.45312 14V14.6641H5.99609H7.53906V14V13.3359H5.99609H4.45312V14Z" fill="#252B5C"/>
<path d="M12.4609 14V14.6641H14.0039H15.5469V14V13.3359H14.0039H12.4609V14Z" fill="#252B5C"/>
<path d="M17.3438 14.6836V15.2891H18.0078H18.6719V14.6836V14.0781H18.0078H17.3438V14.6836Z" fill="#252B5C"/>
</svg>
