<svg width="73" height="74" viewBox="0 0 73 74" fill="none" xmlns="http://www.w3.org/2000/svg">
<g filter="url(#filter0_d_992_1732)">
<circle cx="32.5" cy="28.9863" r="21" stroke="#FF0019"/>
</g>
<g clip-path="url(#clip0_992_1732)">
<path d="M32.8867 39.8704C32.5945 39.7157 32.3711 39.4321 32.2379 39.0454C32.1562 38.8004 32.139 38.6586 32.1261 38.0399L32.1176 37.3223L31.7953 36.536C30.9273 34.4004 29.9304 32.5012 29.1527 31.4872C29.0152 31.3067 28.723 30.9844 28.5082 30.7782C28.0957 30.3743 27.8336 30.0348 27.5801 29.5751C27.4941 29.4161 27.4168 29.2872 27.4168 29.2872C27.4125 29.2872 27.3008 29.3301 27.1718 29.3817C26.9441 29.4762 26.8711 29.4805 25.3629 29.4934C24.4605 29.502 23.6613 29.4891 23.4808 29.4676C22.7203 29.3602 22.1058 28.8489 21.8867 28.1356C21.8051 27.8692 21.8008 27.7231 21.8008 23.8129C21.8008 19.4086 21.7922 19.5762 22.0414 19.1251C22.1875 18.8672 22.5097 18.545 22.7676 18.3989C23.1886 18.1669 23.266 18.1583 25.1051 18.1583C26.1234 18.1583 26.884 18.1797 27 18.2055C27.1074 18.2313 27.3008 18.3044 27.4297 18.3688L27.666 18.4891L28.3105 18.4118C30.5707 18.1368 32.4527 18.0336 35.4433 18.0165C37.682 18.0079 37.7808 18.0122 38.2621 18.1024C40.5136 18.5321 41.7383 19.6579 41.7383 21.3036V21.686L42.0004 21.9954C42.3226 22.3821 42.473 22.6399 42.6234 23.0782C42.7222 23.3704 42.7394 23.495 42.7437 23.9161C42.748 24.2684 42.7265 24.5004 42.6664 24.7239L42.589 25.0333L42.7695 25.3126C43.0488 25.7422 43.1648 26.0946 43.1906 26.6059C43.2207 27.2161 43.1047 27.6672 42.791 28.1915L42.6406 28.4407L42.7308 28.8102C42.8511 29.3001 42.8297 29.9016 42.675 30.3227C42.314 31.2981 41.4117 31.8997 40.0109 32.1059C39.6199 32.1618 39.332 32.1704 38.5371 32.1532C37.5058 32.1274 37.0289 32.0758 35.9804 31.8696C35.6367 31.8008 35.3488 31.7536 35.3402 31.7622C35.3101 31.7922 35.4176 32.527 35.5121 32.9266C35.5594 33.1372 35.7226 33.7215 35.873 34.2286C36.2855 35.6122 36.3414 35.9129 36.3414 36.7852C36.3414 37.6403 36.2898 37.9239 36.0105 38.4825C35.6968 39.1227 35.1168 39.6168 34.3906 39.8575C34.1972 39.9219 33.9609 39.9563 33.6172 39.9735C33.1359 39.995 33.1187 39.9907 32.8867 39.8704ZM33.9824 38.6329C34.8719 38.3836 35.25 37.4211 34.9965 36.0247C34.9449 35.7497 34.8074 35.1954 34.6871 34.8001C34.3691 33.7516 34.2703 33.3993 34.1801 32.918C33.9222 31.6118 34.0812 30.8254 34.657 30.529C34.9492 30.3786 35.0867 30.3872 36.1308 30.5891C37.3726 30.834 37.8797 30.8899 38.7949 30.8899C39.7273 30.8899 40.4019 30.7782 40.8488 30.5504C41.0594 30.4387 41.3129 30.1809 41.4246 29.9575C41.5793 29.6524 41.5535 29.2141 41.3601 28.7973C41.2183 28.4922 41.184 28.2344 41.2699 28.0754C41.2957 28.0282 41.4117 27.8692 41.5277 27.7274C41.7812 27.4137 41.9101 27.0915 41.9101 26.7735C41.9101 26.4942 41.7855 26.1376 41.6051 25.9012C41.532 25.8067 41.416 25.652 41.3429 25.5575C41.1539 25.304 41.1453 25.1192 41.3129 24.711C41.4289 24.4188 41.4504 24.3114 41.4547 23.9805C41.459 23.6282 41.4461 23.568 41.3172 23.293C41.2054 23.061 41.0937 22.9192 40.8101 22.6485C40.3847 22.236 40.3375 22.1329 40.4105 21.7333C40.4793 21.3551 40.4406 20.9211 40.316 20.6676C39.9379 19.877 38.7218 19.3571 37.0976 19.2883C36.2726 19.2583 32.066 19.3528 31.1465 19.4215C30.0722 19.5075 28.7445 19.6407 28.5254 19.6836C28.4394 19.7008 28.4394 19.7309 28.4523 23.7313C28.4609 26.4126 28.448 27.8219 28.4179 27.9422C28.3664 28.1614 28.4222 28.359 28.6844 28.879C28.9035 29.3086 29.0238 29.4719 29.5179 29.9575C30.6738 31.1004 31.9715 33.4336 33.2133 36.5919L33.4238 37.129L33.4109 37.7821C33.398 38.2075 33.4109 38.4911 33.4453 38.5899C33.5011 38.7618 33.5097 38.7618 33.9824 38.6329ZM26.8582 28.1012C26.9226 28.054 27.0215 27.9465 27.0773 27.8692L27.1718 27.7274V23.8344C27.1718 20.1262 27.1676 19.9329 27.0902 19.7911C27.0472 19.7094 26.9613 19.602 26.8968 19.5547C26.7851 19.4731 26.7121 19.4688 25.1609 19.4559C23.6054 19.4473 23.5367 19.4473 23.3992 19.5333C23.3218 19.5805 23.223 19.6794 23.1758 19.7567C23.0941 19.8942 23.0898 19.9844 23.0898 23.8258C23.0898 27.736 23.0898 27.7532 23.1801 27.8993C23.2316 27.9766 23.339 28.0797 23.425 28.127C23.5754 28.2044 23.6699 28.2086 25.1609 28.2001C26.682 28.1915 26.7379 28.1872 26.8582 28.1012Z" fill="#FF0019"/>
</g>
<defs>
<filter id="filter0_d_992_1732" x="0" y="0.486328" width="73" height="73" filterUnits="userSpaceOnUse" color-interpolation-filters="sRGB">
<feFlood flood-opacity="0" result="BackgroundImageFix"/>
<feColorMatrix in="SourceAlpha" type="matrix" values="0 0 0 0 0 0 0 0 0 0 0 0 0 0 0 0 0 0 127 0" result="hardAlpha"/>
<feOffset dx="4" dy="8"/>
<feGaussianBlur stdDeviation="7.5"/>
<feColorMatrix type="matrix" values="0 0 0 0 0.94902 0 0 0 0 0.231373 0 0 0 0 0.333333 0 0 0 0.2 0"/>
<feBlend mode="normal" in2="BackgroundImageFix" result="effect1_dropShadow_992_1732"/>
<feBlend mode="normal" in="SourceGraphic" in2="effect1_dropShadow_992_1732" result="shape"/>
</filter>
<clipPath id="clip0_992_1732">
<rect width="22" height="22" fill="white" transform="matrix(1 0 0 -1 21.5 39.9863)"/>
</clipPath>
</defs>
</svg>
