<svg width="20" height="20" viewBox="0 0 20 20" fill="none" xmlns="http://www.w3.org/2000/svg">
<circle cx="5.99902" cy="5.99902" r="5.99902" transform="matrix(1 0 0 -1 4.02075 15.7849)" fill="white"/>
<path d="M8.82818 19.3235C5.34068 18.8782 2.40162 16.6 1.10318 13.3422C0.0719319 10.75 0.240682 7.71255 1.54849 5.26567C2.48599 3.51724 3.99068 2.05942 5.75787 1.18755C8.80943 -0.31714 12.5032 -0.0827647 15.3251 1.79224C18.2501 3.74223 19.9001 7.19692 19.5626 10.661C19.1266 15.1516 15.7469 18.6954 11.3219 19.3C10.7547 19.3797 9.36256 19.3938 8.82818 19.3235ZM10.3047 15.4844C10.5672 15.3579 14.8938 11.0172 14.9922 10.7829C15.0813 10.5672 15.0813 10.361 14.9969 10.1969C14.8751 9.97192 14.111 9.25473 13.9376 9.20317C13.5907 9.10473 13.4829 9.17505 12.4141 10.2391C11.8704 10.7782 11.411 11.2188 11.3922 11.2188C11.3735 11.2188 11.3594 9.70473 11.3594 7.85786C11.3594 4.60473 11.3547 4.48755 11.2657 4.34223C11.0829 4.04223 11.0126 4.02348 10.0469 4.02348C9.06256 4.02348 8.936 4.05161 8.77193 4.32348L8.66412 4.49223L8.65006 7.86255L8.63599 11.2375L7.64224 10.2485C6.78443 9.39067 6.62037 9.25005 6.44224 9.20317C6.11881 9.1188 5.91256 9.22192 5.43912 9.71411C4.98912 10.1829 4.90474 10.361 4.98912 10.6797C5.03131 10.8391 5.35474 11.186 7.32349 13.1547C9.90162 15.7422 9.85474 15.7047 10.3047 15.4844Z" fill="#F74682"/>
</svg>
