<svg width="30" height="30" viewBox="0 0 30 30" fill="none" xmlns="http://www.w3.org/2000/svg">
<rect width="30" height="30" rx="15" fill="#1F4C6B"/>
<path d="M12.5 13.5L15 15.25L17.5 13.5" stroke="white" stroke-linecap="round" stroke-linejoin="round"/>
<path d="M10 17.5V12.5C10 12.2348 10.1054 11.9804 10.2929 11.7929C10.4804 11.6054 10.7348 11.5 11 11.5H19C19.2652 11.5 19.5196 11.6054 19.7071 11.7929C19.8946 11.9804 20 12.2348 20 12.5V17.5C20 17.7652 19.8946 18.0196 19.7071 18.2071C19.5196 18.3946 19.2652 18.5 19 18.5H11C10.7348 18.5 10.4804 18.3946 10.2929 18.2071C10.1054 18.0196 10 17.7652 10 17.5Z" stroke="white"/>
</svg>
