<svg width="20" height="21" viewBox="0 0 20 21" fill="none" xmlns="http://www.w3.org/2000/svg">
<path d="M5.8335 8L10.0002 10.9167L14.1668 8" stroke="#252B5C" stroke-width="1.6" stroke-linecap="round" stroke-linejoin="round"/>
<path d="M1.66675 14.6666V6.33329C1.66675 5.89127 1.84234 5.46734 2.1549 5.15478C2.46746 4.84222 2.89139 4.66663 3.33341 4.66663H16.6667C17.1088 4.66663 17.5327 4.84222 17.8453 5.15478C18.1578 5.46734 18.3334 5.89127 18.3334 6.33329V14.6666C18.3334 15.1087 18.1578 15.5326 17.8453 15.8451C17.5327 16.1577 17.1088 16.3333 16.6667 16.3333H3.33341C2.89139 16.3333 2.46746 16.1577 2.1549 15.8451C1.84234 15.5326 1.66675 15.1087 1.66675 14.6666Z" stroke="#252B5C" stroke-width="1.6"/>
</svg>
