<svg width="362" height="72" viewBox="0 0 362 72" fill="none" xmlns="http://www.w3.org/2000/svg">
<g filter="url(#filter0_d_162_2956)">
<rect x="14" y="14" width="334" height="44" rx="10" fill="#1877F2" shape-rendering="crispEdges"/>
<path d="M155.583 27.6666H153.083C151.978 27.6666 150.918 28.1056 150.137 28.887C149.356 29.6684 148.917 30.7282 148.917 31.8333V34.3333H146.417V37.6666H148.917V44.3333H152.25V37.6666H154.75L155.583 34.3333H152.25V31.8333C152.25 31.6123 152.338 31.4003 152.494 31.244C152.65 31.0878 152.862 31 153.083 31H155.583V27.6666Z" fill="white"/>
<path d="M176.181 32.52V33.65H173.271V35.44H175.501V36.55H173.271V39.5H171.871V32.52H176.181ZM176.813 36.71C176.813 36.15 176.923 35.6533 177.143 35.22C177.37 34.7867 177.673 34.4533 178.053 34.22C178.44 33.9867 178.87 33.87 179.343 33.87C179.757 33.87 180.117 33.9533 180.423 34.12C180.737 34.2867 180.987 34.4967 181.173 34.75V33.96H182.583V39.5H181.173V38.69C180.993 38.95 180.743 39.1667 180.423 39.34C180.11 39.5067 179.747 39.59 179.333 39.59C178.867 39.59 178.44 39.47 178.053 39.23C177.673 38.99 177.37 38.6533 177.143 38.22C176.923 37.78 176.813 37.2767 176.813 36.71ZM181.173 36.73C181.173 36.39 181.107 36.1 180.973 35.86C180.84 35.6133 180.66 35.4267 180.433 35.3C180.207 35.1667 179.963 35.1 179.703 35.1C179.443 35.1 179.203 35.1633 178.983 35.29C178.763 35.4167 178.583 35.6033 178.443 35.85C178.31 36.09 178.243 36.3767 178.243 36.71C178.243 37.0433 178.31 37.3367 178.443 37.59C178.583 37.8367 178.763 38.0267 178.983 38.16C179.21 38.2933 179.45 38.36 179.703 38.36C179.963 38.36 180.207 38.2967 180.433 38.17C180.66 38.0367 180.84 37.85 180.973 37.61C181.107 37.3633 181.173 37.07 181.173 36.73ZM183.591 36.73C183.591 36.1567 183.707 35.6567 183.941 35.23C184.174 34.7967 184.497 34.4633 184.911 34.23C185.324 33.99 185.797 33.87 186.331 33.87C187.017 33.87 187.584 34.0433 188.031 34.39C188.484 34.73 188.787 35.21 188.941 35.83H187.431C187.351 35.59 187.214 35.4033 187.021 35.27C186.834 35.13 186.601 35.06 186.321 35.06C185.921 35.06 185.604 35.2067 185.371 35.5C185.137 35.7867 185.021 36.1967 185.021 36.73C185.021 37.2567 185.137 37.6667 185.371 37.96C185.604 38.2467 185.921 38.39 186.321 38.39C186.887 38.39 187.257 38.1367 187.431 37.63H188.941C188.787 38.23 188.484 38.7067 188.031 39.06C187.577 39.4133 187.011 39.59 186.331 39.59C185.797 39.59 185.324 39.4733 184.911 39.24C184.497 39 184.174 38.6667 183.941 38.24C183.707 37.8067 183.591 37.3033 183.591 36.73ZM195.116 36.61C195.116 36.81 195.103 36.99 195.076 37.15H191.026C191.06 37.55 191.2 37.8633 191.446 38.09C191.693 38.3167 191.996 38.43 192.356 38.43C192.876 38.43 193.246 38.2067 193.466 37.76H194.976C194.816 38.2933 194.51 38.7333 194.056 39.08C193.603 39.42 193.046 39.59 192.386 39.59C191.853 39.59 191.373 39.4733 190.946 39.24C190.526 39 190.196 38.6633 189.956 38.23C189.723 37.7967 189.606 37.2967 189.606 36.73C189.606 36.1567 189.723 35.6533 189.956 35.22C190.19 34.7867 190.516 34.4533 190.936 34.22C191.356 33.9867 191.84 33.87 192.386 33.87C192.913 33.87 193.383 33.9833 193.796 34.21C194.216 34.4367 194.54 34.76 194.766 35.18C195 35.5933 195.116 36.07 195.116 36.61ZM193.666 36.21C193.66 35.85 193.53 35.5633 193.276 35.35C193.023 35.13 192.713 35.02 192.346 35.02C192 35.02 191.706 35.1267 191.466 35.34C191.233 35.5467 191.09 35.8367 191.036 36.21H193.666ZM197.538 34.77C197.718 34.5033 197.965 34.2867 198.278 34.12C198.598 33.9533 198.962 33.87 199.368 33.87C199.842 33.87 200.268 33.9867 200.648 34.22C201.035 34.4533 201.338 34.7867 201.558 35.22C201.785 35.6467 201.898 36.1433 201.898 36.71C201.898 37.2767 201.785 37.78 201.558 38.22C201.338 38.6533 201.035 38.99 200.648 39.23C200.268 39.47 199.842 39.59 199.368 39.59C198.955 39.59 198.592 39.51 198.278 39.35C197.972 39.1833 197.725 38.97 197.538 38.71V39.5H196.138V32.1H197.538V34.77ZM200.468 36.71C200.468 36.3767 200.398 36.09 200.258 35.85C200.125 35.6033 199.945 35.4167 199.718 35.29C199.498 35.1633 199.258 35.1 198.998 35.1C198.745 35.1 198.505 35.1667 198.278 35.3C198.058 35.4267 197.878 35.6133 197.738 35.86C197.605 36.1067 197.538 36.3967 197.538 36.73C197.538 37.0633 197.605 37.3533 197.738 37.6C197.878 37.8467 198.058 38.0367 198.278 38.17C198.505 38.2967 198.745 38.36 198.998 38.36C199.258 38.36 199.498 38.2933 199.718 38.16C199.945 38.0267 200.125 37.8367 200.258 37.59C200.398 37.3433 200.468 37.05 200.468 36.71ZM205.376 39.59C204.842 39.59 204.362 39.4733 203.936 39.24C203.509 39 203.172 38.6633 202.926 38.23C202.686 37.7967 202.566 37.2967 202.566 36.73C202.566 36.1633 202.689 35.6633 202.936 35.23C203.189 34.7967 203.532 34.4633 203.966 34.23C204.399 33.99 204.882 33.87 205.416 33.87C205.949 33.87 206.432 33.99 206.866 34.23C207.299 34.4633 207.639 34.7967 207.886 35.23C208.139 35.6633 208.266 36.1633 208.266 36.73C208.266 37.2967 208.136 37.7967 207.876 38.23C207.622 38.6633 207.276 39 206.836 39.24C206.402 39.4733 205.916 39.59 205.376 39.59ZM205.376 38.37C205.629 38.37 205.866 38.31 206.086 38.19C206.312 38.0633 206.492 37.8767 206.626 37.63C206.759 37.3833 206.826 37.0833 206.826 36.73C206.826 36.2033 206.686 35.8 206.406 35.52C206.132 35.2333 205.796 35.09 205.396 35.09C204.996 35.09 204.659 35.2333 204.386 35.52C204.119 35.8 203.986 36.2033 203.986 36.73C203.986 37.2567 204.116 37.6633 204.376 37.95C204.642 38.23 204.976 38.37 205.376 38.37ZM211.753 39.59C211.219 39.59 210.739 39.4733 210.313 39.24C209.886 39 209.549 38.6633 209.303 38.23C209.063 37.7967 208.943 37.2967 208.943 36.73C208.943 36.1633 209.066 35.6633 209.313 35.23C209.566 34.7967 209.909 34.4633 210.343 34.23C210.776 33.99 211.259 33.87 211.793 33.87C212.326 33.87 212.809 33.99 213.243 34.23C213.676 34.4633 214.016 34.7967 214.263 35.23C214.516 35.6633 214.643 36.1633 214.643 36.73C214.643 37.2967 214.513 37.7967 214.253 38.23C213.999 38.6633 213.653 39 213.213 39.24C212.779 39.4733 212.293 39.59 211.753 39.59ZM211.753 38.37C212.006 38.37 212.243 38.31 212.463 38.19C212.689 38.0633 212.869 37.8767 213.003 37.63C213.136 37.3833 213.203 37.0833 213.203 36.73C213.203 36.2033 213.063 35.8 212.783 35.52C212.509 35.2333 212.173 35.09 211.773 35.09C211.373 35.09 211.036 35.2333 210.763 35.52C210.496 35.8 210.363 36.2033 210.363 36.73C210.363 37.2567 210.493 37.6633 210.753 37.95C211.019 38.23 211.353 38.37 211.753 38.37ZM218.949 39.5L217.069 37.14V39.5H215.669V32.1H217.069V36.31L218.929 33.96H220.749L218.309 36.74L220.769 39.5H218.949Z" fill="white"/>
</g>
<defs>
<filter id="filter0_d_162_2956" x="0" y="0" width="362" height="72" filterUnits="userSpaceOnUse" color-interpolation-filters="sRGB">
<feFlood flood-opacity="0" result="BackgroundImageFix"/>
<feColorMatrix in="SourceAlpha" type="matrix" values="0 0 0 0 0 0 0 0 0 0 0 0 0 0 0 0 0 0 127 0" result="hardAlpha"/>
<feOffset/>
<feGaussianBlur stdDeviation="7"/>
<feComposite in2="hardAlpha" operator="out"/>
<feColorMatrix type="matrix" values="0 0 0 0 0 0 0 0 0 0 0 0 0 0 0 0 0 0 0.05 0"/>
<feBlend mode="normal" in2="BackgroundImageFix" result="effect1_dropShadow_162_2956"/>
<feBlend mode="normal" in="SourceGraphic" in2="effect1_dropShadow_162_2956" result="shape"/>
</filter>
</defs>
</svg>
