<svg width="20" height="19" viewBox="0 0 20 19" fill="none" xmlns="http://www.w3.org/2000/svg">
<path d="M3.57456 0.672314C2.69175 0.859814 1.92221 1.27778 1.2894 1.92231C0.746433 2.46919 0.355808 3.14497 0.129245 3.9145L0.0237763 4.2856L0.00815134 7.0395C-0.00747366 10.0161 0.000338838 10.1567 0.199558 10.77C0.695651 12.3168 2.05112 13.52 3.61753 13.809L3.88706 13.8598L3.90659 15.9692C3.92221 17.645 3.93784 18.0903 3.9769 18.1528C4.11362 18.3559 4.37534 18.4458 4.67612 18.3872C4.80893 18.3637 5.07456 18.1137 7.05112 16.1411L9.27768 13.9184L12.6761 13.9028C15.6449 13.8911 16.1097 13.8793 16.3675 13.8247C17.5472 13.5629 18.5238 12.9301 19.1957 11.9887C19.5667 11.4692 19.8636 10.7348 19.9652 10.0903C19.9886 9.92622 20.0003 8.82075 19.9925 7.07856L19.9808 4.32466L19.8753 3.94185C19.6605 3.1645 19.2582 2.46919 18.6917 1.90278C18.1253 1.33638 17.4339 0.934032 16.6527 0.719189L16.2699 0.61372L10.098 0.605907C4.1644 0.598095 3.9144 0.602001 3.57456 0.672314ZM16.4261 1.91841C17.7855 2.37544 18.6683 3.46138 18.7894 4.83247C18.8363 5.34419 18.8363 9.13325 18.7894 9.64497C18.6605 11.0668 17.6761 12.227 16.2894 12.5942C15.9574 12.6801 15.9378 12.6801 12.4222 12.6918C10.4769 12.6997 8.84409 12.7153 8.7894 12.727C8.73081 12.7387 8.00425 13.434 6.88706 14.5512L5.07846 16.3559V14.7036V13.0512L4.93003 12.895L4.78159 12.7348L4.33237 12.684C3.74253 12.6137 3.44565 12.5356 3.06675 12.3481C2.00425 11.8247 1.31675 10.8286 1.21128 9.64497C1.1644 9.13325 1.1644 5.34419 1.21128 4.83247C1.26987 4.16841 1.50425 3.57856 1.9144 3.04731C2.37143 2.46528 3.14096 1.99263 3.87143 1.84809C3.96518 1.82856 6.75424 1.81684 10.098 1.82075L16.1527 1.82466L16.4261 1.91841Z" fill="#1D3A70"/>
<path d="M9.21094 4.5083C9.13281 4.52783 9.00781 4.60205 8.92969 4.66846C8.79688 4.78955 8.76562 4.87549 8.04688 7.23877C7.64062 8.58643 7.30469 9.72705 7.30469 9.77393C7.30469 9.89502 7.56641 10.1372 7.76172 10.1958C7.84766 10.2231 8.00781 10.2427 8.11719 10.2427C8.42578 10.2427 8.48828 10.1646 8.64453 9.57861L8.77734 9.09033H9.59375H10.4102L10.5469 9.59033C10.707 10.1841 10.7578 10.2427 11.0742 10.2427C11.4766 10.2427 11.875 10.0044 11.875 9.76611C11.875 9.70752 11.5391 8.56299 11.1328 7.22705C10.4141 4.88721 10.3828 4.78955 10.25 4.67236C10.0352 4.47705 9.58984 4.40674 9.21094 4.5083ZM9.85938 7.0708C10 7.59424 10.1172 8.03564 10.1172 8.05908C10.1172 8.10205 9.0625 8.10986 9.0625 8.06299C9.0625 8.02393 9.58203 6.10205 9.59375 6.11377C9.59766 6.11768 9.71484 6.54736 9.85938 7.0708Z" fill="#1D3A70"/>
<path d="M4.10954 4.57854C4.00798 4.62541 3.92985 4.69182 3.90641 4.75432C3.88298 4.82073 3.86735 5.81291 3.86735 7.40276C3.86735 10.2309 3.85173 10.0746 4.12516 10.1879C4.40251 10.3051 4.93376 10.2309 5.06266 10.0551C5.10173 10.0043 5.11345 9.7426 5.11735 8.92229V7.85979H5.76579C6.15251 7.85979 6.44157 7.84417 6.49235 7.81682C6.66032 7.72698 6.73454 7.33635 6.62126 7.1176C6.50798 6.89885 6.44938 6.88323 5.75407 6.88323H5.11735V6.2387V5.59416H6.17595C6.82438 5.59416 7.26188 5.57854 7.30876 5.5551C7.59391 5.39885 7.57438 4.64885 7.28141 4.53948C7.22282 4.51604 6.56266 4.50041 5.73063 4.50041C4.37907 4.50041 4.26579 4.50823 4.10954 4.57854Z" fill="#1D3A70"/>
<path d="M14.1602 4.52393C13.6836 4.59814 13.3164 4.77783 13.0547 5.06299C12.8359 5.30127 12.7227 5.56299 12.6562 5.95361C12.6055 6.27393 12.6055 8.54346 12.6562 8.87549C12.7109 9.22705 12.9258 9.65283 13.1484 9.84814C13.3672 10.0396 13.5781 10.145 13.918 10.2271L14.1797 10.2935V10.5903C14.1836 10.7622 14.2031 10.9146 14.2305 10.9497C14.3008 11.0435 14.4336 11.1021 14.5703 11.1021C14.8398 11.1021 14.9609 10.9302 14.9609 10.5396C14.9609 10.2935 14.9648 10.2817 15.0703 10.2583C15.7812 10.1021 16.1758 9.78955 16.3906 9.20752C16.457 9.03174 16.4648 8.85986 16.4766 7.50439C16.4883 5.91846 16.4727 5.71924 16.3008 5.37939C16.1211 5.02783 15.7695 4.74268 15.3438 4.61377C15.1055 4.53564 14.4102 4.48486 14.1602 4.52393ZM14.9492 5.71533C15.0156 5.7583 15.1094 5.86768 15.1523 5.96143C15.2305 6.11768 15.2344 6.19189 15.2344 7.36768C15.2344 8.68799 15.2188 8.84424 15.0547 8.99658L14.9609 9.08252V8.89893C14.9609 8.79736 14.9336 8.66455 14.9023 8.60596C14.793 8.39111 14.4609 8.35205 14.2695 8.53174C14.1953 8.60205 14.1797 8.65674 14.1797 8.86768V9.12158L14.0977 9.04736C13.9023 8.87549 13.8906 8.77783 13.875 7.53955C13.8594 6.25049 13.8867 6.01611 14.0547 5.82471C14.2656 5.59424 14.668 5.54346 14.9492 5.71533Z" fill="#1D3A70"/>
</svg>
