<svg width="39" height="41" viewBox="0 0 39 41" fill="none" xmlns="http://www.w3.org/2000/svg">
<ellipse cx="19.8459" cy="20.2659" rx="19.154" ry="20" fill="white"/>
<path d="M26.9208 10.7199C26.0763 10.8951 25.3396 11.4566 24.9442 12.2293C24.6972 12.7099 24.6343 12.9885 24.6343 13.5724C24.6343 14.0082 24.6567 14.1474 24.7601 14.4574C25.4339 16.5058 28.0259 17.1213 29.5487 15.5939C30.847 14.3002 30.6403 12.1664 29.1175 11.1512C28.5021 10.7379 27.644 10.5672 26.9208 10.7199Z" fill="#8A8A8A"/>
<path d="M9.85054 12.6696C9.17671 12.9795 9.09585 13.9454 9.7023 14.3631L9.88648 14.4934L15.9599 14.5069L22.0289 14.5159L22.231 14.4125C22.3388 14.3542 22.4916 14.2194 22.5634 14.1161C22.6847 13.9409 22.6982 13.8915 22.6982 13.5545C22.6982 13.2176 22.6847 13.1637 22.5679 12.9975C22.4871 12.8807 22.3568 12.7684 22.213 12.6965L21.9839 12.5842H16.0093C10.2863 12.5842 10.0212 12.5887 9.85054 12.6696Z" fill="#8A8A8A"/>
<path d="M15.2412 17.4762C14.8639 17.5885 14.7561 17.6379 14.473 17.8176C13.9879 18.1276 13.5836 18.5903 13.377 19.0709L13.2916 19.2731L11.6385 19.2865L9.98535 19.3L9.7832 19.4123C9.67539 19.4752 9.52266 19.6145 9.44629 19.7178C9.325 19.8975 9.31152 19.9469 9.31152 20.2658C9.31152 20.5848 9.325 20.6342 9.44629 20.8139C9.52266 20.9172 9.67539 21.0565 9.7832 21.1194L9.98535 21.2317L11.634 21.2451L13.2826 21.2586L13.3725 21.4563C13.6824 22.1526 14.3428 22.7545 15.084 23.0106C15.4838 23.1453 16.2924 23.1813 16.7012 23.078C18.0174 22.75 18.9023 21.618 18.9023 20.2658C18.9023 19.4707 18.6193 18.7744 18.0623 18.2174C17.7074 17.858 17.2223 17.584 16.7236 17.4582C16.3553 17.3639 15.5871 17.3729 15.2412 17.4762Z" fill="#8A8A8A"/>
<path d="M21.4539 19.3405C21.1979 19.4303 21.0721 19.5292 20.9328 19.7358C20.825 19.8975 20.8115 19.9649 20.8115 20.2704C20.8115 20.5848 20.825 20.6342 20.9463 20.8139C21.0227 20.9172 21.1754 21.0565 21.2832 21.1194L21.4854 21.2317H25.5957H29.7061L29.9082 21.1194C30.016 21.0565 30.1687 20.9172 30.2451 20.8139C30.3664 20.6342 30.3799 20.5848 30.3799 20.2659C30.3799 19.9469 30.3664 19.8975 30.2451 19.7178C30.1687 19.6145 30.016 19.4752 29.9082 19.4124L29.7061 19.3L25.6631 19.2911C22.3703 19.2821 21.5887 19.2911 21.4539 19.3405Z" fill="#8A8A8A"/>
<path d="M22.9543 24.174C22.3883 24.3268 22.0649 24.5109 21.6381 24.9377C21.0451 25.5262 20.7891 26.1371 20.7891 26.9771C20.7846 29.1289 23.0217 30.5125 24.9668 29.5601C25.4879 29.3041 26 28.7965 26.2471 28.2934L26.4178 27.9475H28.0395C29.8274 27.9475 29.8678 27.9385 30.1418 27.651C30.5371 27.2287 30.4652 26.4965 29.9891 26.1685L29.8049 26.0383L28.1158 26.0248L26.4268 26.0113L26.2291 25.6295C25.8922 24.9736 25.3262 24.484 24.5984 24.2324C24.1402 24.0707 23.4215 24.0437 22.9543 24.174Z" fill="#8A8A8A"/>
<path d="M9.85052 26.0787C9.24408 26.3482 9.10033 27.2287 9.58548 27.6869C9.87748 27.9609 9.67083 27.9474 14.1046 27.9474C17.9589 27.9474 18.1701 27.9429 18.3408 27.8621C19.0146 27.5521 19.0954 26.5863 18.489 26.1685L18.3048 26.0382L14.1451 26.0292C10.7535 26.0203 9.95833 26.0292 9.85052 26.0787Z" fill="#8A8A8A"/>
</svg>
