<svg width="26" height="24" viewBox="0 0 26 24" fill="none" xmlns="http://www.w3.org/2000/svg">
<path d="M21.6133 0.153615C20.5852 0.366896 19.6883 1.05049 19.2071 1.99112C18.9063 2.57627 18.8297 2.91533 18.8297 3.62627C18.8297 4.15674 18.8571 4.32627 18.9828 4.70362C19.8031 7.19737 22.9586 7.94658 24.8125 6.08721C26.393 4.51221 26.1414 1.91455 24.2875 0.678615C23.5383 0.17549 22.4938 -0.0323224 21.6133 0.153615Z" fill="#8A8A8A"/>
<path d="M0.832086 2.527C0.0117733 2.90435 -0.0866642 4.08013 0.651617 4.58872L0.875836 4.74731L8.26959 4.76372L15.6579 4.77466L15.904 4.64888C16.0352 4.57778 16.2211 4.41372 16.3086 4.28794C16.4563 4.07466 16.4727 4.0145 16.4727 3.60435C16.4727 3.19419 16.4563 3.12856 16.3141 2.92622C16.2157 2.78403 16.0571 2.64731 15.8821 2.55981L15.6032 2.4231H8.32974C1.36255 2.4231 1.0399 2.42856 0.832086 2.527Z" fill="#8A8A8A"/>
<path d="M7.39453 8.37861C6.93516 8.51533 6.80391 8.57549 6.45937 8.79424C5.86875 9.17158 5.37656 9.73486 5.125 10.32L5.02109 10.5661L3.00859 10.5825L0.996094 10.5989L0.75 10.7356C0.61875 10.8122 0.432812 10.9817 0.339844 11.1075C0.192187 11.3263 0.175781 11.3864 0.175781 11.7747C0.175781 12.163 0.192187 12.2231 0.339844 12.4419C0.432812 12.5677 0.61875 12.7372 0.75 12.8138L0.996094 12.9505L3.00312 12.9669L5.01016 12.9833L5.11953 13.2239C5.49687 14.0716 6.30078 14.8044 7.20312 15.1161C7.68984 15.2802 8.67422 15.3239 9.17188 15.1981C10.7742 14.7989 11.8516 13.4208 11.8516 11.7747C11.8516 10.8067 11.507 9.95908 10.8289 9.28095C10.3969 8.84345 9.80625 8.50986 9.19922 8.35674C8.75078 8.24189 7.81562 8.25283 7.39453 8.37861Z" fill="#8A8A8A"/>
<path d="M14.9578 10.6481C14.6461 10.7575 14.493 10.8778 14.3234 11.1293C14.1922 11.3262 14.1758 11.4083 14.1758 11.7801C14.1758 12.1629 14.1922 12.2231 14.3398 12.4418C14.4328 12.5676 14.6188 12.7372 14.75 12.8137L14.9961 12.9504H20H25.0039L25.25 12.8137C25.3812 12.7372 25.5672 12.5676 25.6602 12.4418C25.8078 12.2231 25.8242 12.1629 25.8242 11.7747C25.8242 11.3864 25.8078 11.3262 25.6602 11.1075C25.5672 10.9817 25.3812 10.8122 25.25 10.7356L25.0039 10.5989L20.082 10.5879C16.0734 10.577 15.1219 10.5879 14.9578 10.6481Z" fill="#8A8A8A"/>
<path d="M16.7844 16.5325C16.0953 16.7185 15.7016 16.9427 15.182 17.4622C14.4602 18.1786 14.1484 18.9224 14.1484 19.945C14.143 22.5646 16.8664 24.2489 19.2344 23.0896C19.8688 22.7778 20.4922 22.1599 20.793 21.5474L21.0008 21.1263H22.975C25.1516 21.1263 25.2008 21.1153 25.5344 20.7653C26.0156 20.2513 25.9281 19.3599 25.3484 18.9607L25.1242 18.8021L23.068 18.7857L21.0117 18.7692L20.7711 18.3044C20.3609 17.506 19.6719 16.9099 18.7859 16.6036C18.2281 16.4067 17.3531 16.3739 16.7844 16.5325Z" fill="#8A8A8A"/>
<path d="M0.832128 18.8513C0.0938472 19.1795 -0.0811528 20.2513 0.509472 20.8091C0.864941 21.1427 0.613378 21.1263 6.01103 21.1263C10.7032 21.1263 10.9603 21.1209 11.1681 21.0224C11.9884 20.6451 12.0868 19.4693 11.3485 18.9607L11.1243 18.8021L6.06025 18.7912C1.93135 18.7802 0.963378 18.7912 0.832128 18.8513Z" fill="#8A8A8A"/>
</svg>
