<svg width="27" height="24" viewBox="0 0 27 24" fill="none" xmlns="http://www.w3.org/2000/svg">
<path d="M22.3261 0.648488C21.2979 0.861769 20.4011 1.54536 19.9198 2.48599C19.619 3.07114 19.5425 3.41021 19.5425 4.12114C19.5425 4.65161 19.5698 4.82114 19.6956 5.19849C20.5159 7.69224 23.6714 8.44146 25.5253 6.58208C27.1058 5.00708 26.8542 2.40943 25.0003 1.17349C24.2511 0.670363 23.2065 0.462551 22.3261 0.648488Z" fill="white"/>
<path d="M1.54461 3.02188C0.724298 3.39922 0.62586 4.575 1.36414 5.08359L1.58836 5.24219L8.98211 5.25859L16.3704 5.26953L16.6165 5.14375C16.7477 5.07266 16.9337 4.90859 17.0212 4.78281C17.1688 4.56953 17.1852 4.50938 17.1852 4.09922C17.1852 3.68906 17.1688 3.62344 17.0266 3.42109C16.9282 3.27891 16.7696 3.14219 16.5946 3.05469L16.3157 2.91797H9.04227C2.07508 2.91797 1.75242 2.92344 1.54461 3.02188Z" fill="white"/>
<path d="M8.10693 8.87348C7.64756 9.0102 7.51631 9.07036 7.17178 9.28911C6.58115 9.66645 6.08896 10.2297 5.8374 10.8149L5.7335 11.061L3.721 11.0774L1.7085 11.0938L1.4624 11.2305C1.33115 11.3071 1.14521 11.4766 1.05225 11.6024C0.90459 11.8211 0.888184 11.8813 0.888184 12.2696C0.888184 12.6579 0.90459 12.718 1.05225 12.9368C1.14521 13.0625 1.33115 13.2321 1.4624 13.3086L1.7085 13.4454L3.71553 13.4618L5.72256 13.4782L5.83193 13.7188C6.20928 14.5665 7.01318 15.2993 7.91553 15.611C8.40225 15.775 9.38662 15.8188 9.88428 15.693C11.4866 15.2938 12.564 13.9157 12.564 12.2696C12.564 11.3016 12.2194 10.454 11.5413 9.77583C11.1093 9.33833 10.5187 9.00473 9.91162 8.85161C9.46318 8.73676 8.52803 8.7477 8.10693 8.87348Z" fill="white"/>
<path d="M15.6702 11.143C15.3585 11.2523 15.2054 11.3727 15.0358 11.6242C14.9046 11.8211 14.8882 11.9031 14.8882 12.275C14.8882 12.6578 14.9046 12.718 15.0522 12.9367C15.1452 13.0625 15.3312 13.232 15.4624 13.3086L15.7085 13.4453H20.7124H25.7163L25.9624 13.3086C26.0937 13.232 26.2796 13.0625 26.3726 12.9367C26.5202 12.718 26.5366 12.6578 26.5366 12.2695C26.5366 11.8813 26.5202 11.8211 26.3726 11.6023C26.2796 11.4766 26.0937 11.307 25.9624 11.2305L25.7163 11.0938L20.7944 11.0828C16.7858 11.0719 15.8343 11.0828 15.6702 11.143Z" fill="white"/>
<path d="M17.4968 17.0274C16.8077 17.2133 16.414 17.4376 15.8944 17.9571C15.1726 18.6735 14.8608 19.4172 14.8608 20.4399C14.8554 23.0594 17.5788 24.7438 19.9468 23.5844C20.5812 23.2727 21.2046 22.6547 21.5054 22.0422L21.7132 21.6212H23.6874C25.864 21.6212 25.9132 21.6102 26.2468 21.2602C26.728 20.7462 26.6405 19.8547 26.0608 19.4555L25.8366 19.2969L23.7804 19.2805L21.7241 19.2641L21.4835 18.7993C21.0733 18.0008 20.3843 17.4047 19.4983 17.0985C18.9405 16.9016 18.0655 16.8688 17.4968 17.0274Z" fill="white"/>
<path d="M1.54465 19.3462C0.806372 19.6743 0.631372 20.7462 1.222 21.304C1.57747 21.6376 1.3259 21.6212 6.72356 21.6212C11.4157 21.6212 11.6728 21.6157 11.8806 21.5173C12.7009 21.14 12.7993 19.9642 12.0611 19.4556L11.8368 19.297L6.77278 19.2861C2.64387 19.2751 1.6759 19.2861 1.54465 19.3462Z" fill="white"/>
</svg>
