<svg width="20" height="21" viewBox="0 0 20 21" fill="none" xmlns="http://www.w3.org/2000/svg">
<g clip-path="url(#clip0_327_1284)">
<path d="M5.05859 1.59035C3.75781 1.75832 2.67578 2.27395 1.74609 3.16457C1.07812 3.80129 0.601562 4.54739 0.300781 5.41067C0.0546875 6.1177 0.0195312 6.36379 0.0195312 7.32473C0.0234375 8.07082 0.03125 8.23098 0.105469 8.53957C0.367188 9.61379 0.867188 10.5552 1.55859 11.2779C1.76562 11.4927 1.78516 11.5239 1.73047 11.5708C1.60547 11.6724 1.36328 12.0904 1.28906 12.3364C1.19141 12.6529 1.18359 13.2154 1.27344 13.52C1.47266 14.1958 2.01953 14.7427 2.65625 14.9107L2.92969 14.9771V15.1568C2.92969 15.6216 3.15234 16.1255 3.53516 16.5083C3.89453 16.8716 4.39062 17.1099 4.79297 17.1099C4.89844 17.1099 4.92578 17.1255 4.94141 17.2154C5.01953 17.5747 5.05469 17.688 5.16406 17.9068C5.23438 18.0474 5.38281 18.2427 5.52344 18.3794C5.96484 18.813 6.49219 19.0083 7.10938 18.9732L7.44141 18.9536L7.58984 19.2622C8 20.1255 8.99609 20.5786 9.94141 20.3325C10.3398 20.2271 10.5391 20.0904 11.0977 19.5318C11.5391 19.0943 11.6523 18.9575 11.7695 18.7193C11.8477 18.563 11.9219 18.3521 11.9336 18.2505C11.9805 17.8911 11.9648 17.9107 12.2539 17.856C12.5391 17.8052 12.9414 17.6138 13.1797 17.4146C13.5273 17.1294 13.8047 16.6255 13.8594 16.1763L13.8867 15.9575L14.1055 15.9302C14.5547 15.8755 15.0547 15.5982 15.3477 15.2505C15.5352 15.0239 15.7422 14.5786 15.7891 14.2935L15.832 14.0357L16.0781 13.9966C16.5703 13.9107 17.0664 13.606 17.3633 13.1997C17.5703 12.9185 17.6836 12.6294 17.7422 12.231L17.7852 11.9341L18.2422 11.4654C19.0312 10.6529 19.4102 10.0591 19.707 9.16848C19.9414 8.46145 19.9805 8.19582 19.9805 7.3052C19.9805 6.41457 19.9414 6.14895 19.707 5.44192C19.2305 4.00442 18.0938 2.73488 16.7148 2.09817C15.9609 1.7466 15.3711 1.60598 14.4922 1.57473C12.8672 1.51613 11.4102 2.06301 10.2656 3.16067L10 3.41067L9.73828 3.16067C8.87109 2.33254 7.78516 1.80129 6.58984 1.62551C6.21875 1.56692 5.36719 1.55129 5.05859 1.59035ZM15.2852 2.98488C16.2539 3.23488 17.1914 3.8677 17.8164 4.69582C18.1211 5.10207 18.4492 5.77785 18.582 6.27004C18.6758 6.6177 18.6875 6.73098 18.6875 7.3052C18.6914 7.89114 18.6797 7.98489 18.582 8.34035C18.3828 9.0591 17.957 9.82473 17.457 10.3599L17.2305 10.606L14.8555 8.23098C13.5508 6.92629 12.4648 5.85989 12.4453 5.85989C12.4297 5.85989 12.2656 6.00051 12.0859 6.17239C11.6562 6.57473 11.3633 6.71926 10.9219 6.7466C10.3945 6.77785 10.0195 6.61379 9.57031 6.15285L9.35547 5.9341L10.3516 4.94973C11.3594 3.95364 11.7109 3.66457 12.2656 3.3677C12.625 3.17238 13.1602 2.98879 13.5742 2.91067C14.0391 2.82473 14.7969 2.85598 15.2852 2.98488ZM6.84766 3.02004C7.54297 3.20363 8.23047 3.58254 8.78125 4.08645L9.07031 4.34817L8.28516 5.13332C7.85156 5.56692 7.5 5.93801 7.5 5.96145C7.5 6.03567 8.92188 7.40285 9.17578 7.57864C9.70312 7.9341 10.1367 8.06301 10.8203 8.06301C11.375 8.06301 11.6523 8.00442 12.0938 7.79739L12.3711 7.66457L14.3672 9.66457C16.4922 11.7935 16.4844 11.7857 16.4258 12.1021C16.3477 12.5513 15.8633 12.8169 15.457 12.6411C15.3867 12.6099 14.6836 11.938 13.8672 11.1177C13.0625 10.3091 12.3867 9.64895 12.3633 9.64895C12.3125 9.64895 11.4453 10.5161 11.4453 10.5669C11.4453 10.5904 12.1055 11.2661 12.9141 12.0708C13.7344 12.8872 14.4062 13.5904 14.4375 13.6607C14.6133 14.0669 14.3477 14.5513 13.8984 14.6294C13.5898 14.688 13.5547 14.6607 11.9414 13.0513L10.4297 11.5435L9.95312 12.0239L9.47266 12.5005L10.9805 14.0122C12.168 15.2036 12.5 15.5591 12.5391 15.6763C12.6719 16.0943 12.3203 16.563 11.8789 16.563C11.6641 16.563 11.5547 16.5122 11.2969 16.3052C10.8398 15.9341 10.4453 15.8052 9.83203 15.8247L9.45312 15.8404L9.39062 15.6568C9.19531 15.0708 8.51172 14.5239 7.83203 14.4107C7.51953 14.356 7.52734 14.3638 7.48047 14.0825C7.46875 13.9966 7.39453 13.8013 7.32031 13.645C7.07422 13.1255 6.54297 12.6997 5.98828 12.5708L5.78125 12.52V12.3052C5.77734 11.4771 5.11719 10.6724 4.25781 10.4497C3.89062 10.3521 3.37891 10.3833 3.04688 10.52L2.79297 10.6255L2.60156 10.438C2.01953 9.87551 1.57422 9.03567 1.38281 8.12942C1.29688 7.71926 1.29688 6.91848 1.38281 6.47317C1.67969 4.94582 2.76172 3.67629 4.21875 3.14504C4.78516 2.93801 5.10938 2.89113 5.82031 2.90676C6.35938 2.91848 6.52734 2.93801 6.84766 3.02004ZM4.05469 11.7739C4.30469 11.9029 4.45312 12.1489 4.45312 12.4302C4.45312 12.6685 4.36328 12.8091 3.96875 13.1997C3.48047 13.6763 3.28516 13.7544 2.94922 13.5982C2.61719 13.4497 2.44922 13.1138 2.53906 12.7857C2.58203 12.6411 2.66406 12.5279 2.90625 12.27C3.31641 11.8443 3.50781 11.7193 3.75781 11.7193C3.86328 11.7193 3.99609 11.7427 4.05469 11.7739ZM5.87891 13.9497C6.14844 14.1372 6.26562 14.4575 6.17188 14.7505C6.11328 14.9341 5.48438 15.5943 5.26562 15.7075C4.72266 15.9849 4.10547 15.4458 4.29688 14.8599C4.35938 14.6724 4.98047 14.0239 5.20703 13.9068C5.41016 13.8052 5.69141 13.8247 5.87891 13.9497ZM7.76172 15.7622C7.94922 15.8404 8.03906 15.9224 8.12891 16.1021C8.21875 16.2779 8.22266 16.5239 8.14062 16.6919C8.05469 16.8638 7.43359 17.4888 7.25781 17.5825C7.08203 17.6724 6.88281 17.6763 6.69141 17.5982C6.49609 17.5161 6.41016 17.4341 6.32422 17.2466C6.16406 16.8989 6.24609 16.6763 6.70703 16.2075C7.17969 15.7232 7.42188 15.6216 7.76172 15.7622ZM10.125 17.1489C10.3203 17.2036 10.5039 17.3638 10.5898 17.5591C10.7461 17.9029 10.6562 18.1294 10.1484 18.6216C9.75 19.0083 9.66016 19.063 9.39062 19.063C8.85156 19.063 8.53125 18.4614 8.82031 18.0044C8.98047 17.7544 9.5625 17.2114 9.72656 17.1607C9.90625 17.106 9.95312 17.1021 10.125 17.1489Z" fill="#1D3A70"/>
</g>
<defs>
<clipPath id="clip0_327_1284">
<rect width="20" height="20" fill="white" transform="translate(0 0.977051)"/>
</clipPath>
</defs>
</svg>
