<svg width="378" height="378" viewBox="0 0 378 378" fill="none" xmlns="http://www.w3.org/2000/svg">
<mask id="path-1-inside-1_1737_850" fill="white">
<path d="M91.5469 24.6586C67.848 28.9406 48.2097 39.0551 31.8199 55.4449C19.7121 67.4789 10.8527 81.8016 5.61092 97.4531C1.6242 109.561 0.664436 115.098 0.221467 128.978C-0.369158 147.139 2.06717 160.798 8.85936 178C20.3027 206.793 39.7933 234.035 72.3515 266.593C100.406 294.648 130.159 318.716 166.925 343.005C182.355 353.194 184.718 354.375 189.221 354.375C193.799 354.375 196.161 353.12 215.578 340.126C266.446 305.944 312.219 264.821 339.757 228.35C360.946 200.443 373.57 173.275 377.262 147.804C378.443 139.757 377.778 118.199 376.154 110.742C366.557 67.1098 333.851 34.6254 290.145 25.3231C281.211 23.4035 256.257 23.4035 247.324 25.3231C227.391 29.6051 210.853 37.8738 195.054 51.6059L189 56.9215L182.872 51.6059C167.368 38.0953 151.052 29.8266 131.414 25.4707C123.884 23.7727 99.225 23.3297 91.5469 24.6586ZM284.091 49.1695C300.628 52.1227 316.649 60.5391 328.904 72.7207C341.012 84.9023 349.281 100.554 352.455 117.387C353.932 125.139 353.932 139.683 352.529 147.952C348.986 168.328 335.696 194.463 317.239 217.645C290.587 250.942 248.948 287.708 202.068 319.307L189 328.092L177.187 320.119C145.589 298.93 116.132 275.231 91.9898 251.754C54.3375 215.061 32.1152 180.805 25.8398 149.871C23.9941 140.864 23.8465 126.172 25.5445 117.387C31.6722 84.9762 55.4449 59.5055 88.0031 50.4984C96.198 48.2098 112.957 47.3238 121.521 48.6527C143.522 52.0488 162.422 63.1969 176.966 81.3586C182.355 88.1508 186.416 90.0703 192.101 88.5199C195.423 87.634 197.343 85.9359 203.987 77.741C217.128 61.6465 239.055 50.1293 260.761 48.0621C268.07 47.3238 275.748 47.693 284.091 49.1695Z"/>
</mask>
<path d="M91.5469 24.6586L87.5996 2.81235L87.6801 2.79778L87.7608 2.78382L91.5469 24.6586ZM31.8199 55.4449L47.5177 71.1427L47.4937 71.1667L47.4696 71.1906L31.8199 55.4449ZM5.61092 97.4531L-15.4754 90.5101L-15.4578 90.4565L-15.4399 90.4031L5.61092 97.4531ZM0.221467 128.978L22.4102 129.686L22.4097 129.699L0.221467 128.978ZM8.85936 178L-11.771 186.199L-11.7802 186.176L-11.7893 186.153L8.85936 178ZM166.925 343.005L154.693 361.531L154.688 361.528L166.925 343.005ZM215.578 340.126L227.96 358.552L227.943 358.564L227.925 358.576L215.578 340.126ZM339.757 228.35L322.04 214.973L322.058 214.949L322.076 214.926L339.757 228.35ZM377.262 147.804L355.291 144.62L355.294 144.6L355.297 144.58L377.262 147.804ZM376.154 110.742L397.836 105.973L397.841 105.995L397.846 106.017L376.154 110.742ZM290.145 25.3231L285.523 47.0367L285.502 47.0322L285.481 47.0276L290.145 25.3231ZM247.324 25.3231L251.988 47.0276L251.987 47.0279L247.324 25.3231ZM195.054 51.6059L180.406 34.9239L180.448 34.887L180.491 34.8503L195.054 51.6059ZM189 56.9215L203.648 73.6035L189.088 86.3871L174.453 73.6911L189 56.9215ZM182.872 51.6059L168.325 68.3755L168.306 68.3591L168.287 68.3427L182.872 51.6059ZM131.414 25.4707L126.607 47.144L126.569 47.1355L126.531 47.127L131.414 25.4707ZM284.091 49.1695L287.96 27.3093L287.976 27.3123L287.993 27.3152L284.091 49.1695ZM328.904 72.7207L344.555 56.9756L344.602 57.023L344.65 57.0707L328.904 72.7207ZM352.455 117.387L330.648 121.541L330.644 121.521L330.64 121.501L352.455 117.387ZM352.529 147.952L374.417 151.665L374.409 151.71L374.401 151.755L352.529 147.952ZM317.239 217.645L334.607 231.473L334.589 231.496L334.571 231.518L317.239 217.645ZM202.068 319.307L214.475 337.715L214.465 337.723L214.454 337.73L202.068 319.307ZM189 328.092L201.386 346.516L188.975 354.86L176.58 346.493L189 328.092ZM177.187 320.119L189.551 301.68L189.58 301.699L189.608 301.718L177.187 320.119ZM91.9898 251.754L76.5126 267.669L76.5043 267.661L76.496 267.653L91.9898 251.754ZM25.8398 149.871L47.5879 145.415L47.5923 145.436L47.5967 145.457L25.8398 149.871ZM25.5445 117.387L47.3581 121.511L47.3497 121.555L47.3411 121.6L25.5445 117.387ZM88.0031 50.4984L93.9746 71.8802L93.9484 71.8875L93.9223 71.8948L88.0031 50.4984ZM121.521 48.6527L118.134 70.5929L118.126 70.5915L118.117 70.5902L121.521 48.6527ZM176.966 81.3586L194.294 67.4818L194.326 67.5206L194.356 67.5596L176.966 81.3586ZM192.101 88.5199L186.26 67.1022L186.32 67.0857L186.381 67.0695L192.101 88.5199ZM203.987 77.741L186.743 63.7594L186.767 63.7298L186.791 63.7003L203.987 77.741ZM260.761 48.0621L262.992 70.1497L262.929 70.1561L262.866 70.1621L260.761 48.0621ZM95.4942 46.5049C76.0552 50.0172 60.5735 58.0869 47.5177 71.1427L16.1221 39.7472C35.846 20.0233 59.6409 7.86407 87.5996 2.81235L95.4942 46.5049ZM47.4696 71.1906C37.7929 80.8083 30.7953 92.1607 26.6617 104.503L-15.4399 90.4031C-9.08987 71.4425 1.63126 54.1495 16.1702 39.6992L47.4696 71.1906ZM26.6973 104.396C23.4229 114.34 22.7906 117.764 22.4102 129.686L-21.9672 128.27C-21.4618 112.432 -20.1745 104.781 -15.4754 90.5101L26.6973 104.396ZM22.4097 129.699C21.9207 144.736 23.7954 155.379 29.508 169.846L-11.7893 186.153C-19.6611 166.217 -22.6591 149.543 -21.9668 128.256L22.4097 129.699ZM29.4897 169.8C39.4154 194.774 56.6966 219.543 88.0493 250.896L56.6538 282.291C22.89 248.527 1.19008 218.811 -11.771 186.199L29.4897 169.8ZM88.0493 250.896C114.948 277.794 143.517 300.934 179.162 324.483L154.688 361.528C116.801 336.498 85.8645 311.502 56.6538 282.291L88.0493 250.896ZM179.158 324.48C183.001 327.018 185.855 328.878 188.078 330.271C190.35 331.696 191.579 332.389 192.241 332.726C192.831 333.026 192.388 332.739 191.317 332.476C190.101 332.176 189.177 332.175 189.221 332.175V376.575C183.286 376.575 178.135 375.367 172.101 372.296C167.659 370.035 162.056 366.393 154.693 361.531L179.158 324.48ZM189.221 332.175C189.296 332.175 188.967 332.171 188.435 332.23C187.857 332.294 187.249 332.407 186.665 332.567C185.591 332.862 185.275 333.135 186.289 332.588C188.735 331.268 193.164 328.414 203.231 321.676L227.925 358.576C218.576 364.832 212.115 369.103 207.381 371.658C204.805 373.049 201.827 374.448 198.415 375.384C194.705 376.403 191.572 376.575 189.221 376.575V332.175ZM203.196 321.7C252.694 288.438 296.41 248.918 322.04 214.973L357.474 241.728C328.028 280.725 280.198 323.449 227.96 358.552L203.196 321.7ZM322.076 214.926C341.764 188.995 352.297 165.28 355.291 144.62L399.232 150.988C394.844 181.269 380.127 211.891 357.438 241.775L322.076 214.926ZM355.297 144.58C355.581 142.648 355.788 136.942 355.57 129.722C355.469 126.385 355.29 123.152 355.059 120.432C354.943 119.075 354.821 117.925 354.702 117.005C354.642 116.549 354.588 116.185 354.542 115.907C354.52 115.77 354.501 115.663 354.486 115.586C354.479 115.547 354.473 115.518 354.469 115.498C354.467 115.488 354.466 115.48 354.465 115.475C354.463 115.47 354.463 115.467 354.463 115.467L397.846 106.017C399.137 111.944 399.727 121.023 399.95 128.381C400.175 135.816 400.124 144.913 399.226 151.028L355.297 144.58ZM354.473 115.511C346.746 80.3854 320.712 54.5263 285.523 47.0367L294.766 3.60942C346.989 14.7245 386.367 53.8341 397.836 105.973L354.473 115.511ZM285.481 47.0276C283.522 46.6067 277.122 46.0834 268.734 46.0834C260.347 46.0834 253.947 46.6067 251.988 47.0276L242.66 3.61847C249.634 2.11991 260.179 1.6834 268.734 1.6834C277.29 1.6834 287.834 2.11991 294.808 3.61847L285.481 47.0276ZM251.987 47.0279C235.772 50.511 222.629 57.0523 209.617 68.3615L180.491 34.8503C199.077 18.6953 219.009 8.69913 242.662 3.61819L251.987 47.0279ZM209.701 68.2878L203.648 73.6035L174.352 40.2395L180.406 34.9239L209.701 68.2878ZM174.453 73.6911L168.325 68.3755L197.419 34.8362L203.547 40.1519L174.453 73.6911ZM168.287 68.3427C155.529 57.2243 142.56 50.6824 126.607 47.144L136.221 3.79744C159.545 8.97075 179.208 18.9664 197.457 34.8691L168.287 68.3427ZM126.531 47.127C126.611 47.1451 126.219 47.0589 125.165 46.9304C124.192 46.8116 122.942 46.6911 121.441 46.5795C118.438 46.3561 114.824 46.1977 111.104 46.1254C107.387 46.053 103.751 46.0703 100.708 46.1734C99.1872 46.2248 97.9056 46.2947 96.8926 46.3742C96.3905 46.4136 95.9984 46.452 95.7082 46.4853C95.4066 46.5199 95.2941 46.5401 95.3329 46.5334L87.7608 2.78382C93.9546 1.71182 104.016 1.57909 111.968 1.73375C119.837 1.8868 130.032 2.40164 136.297 3.81445L126.531 47.127ZM287.993 27.3152C309.107 31.0855 329.191 41.7043 344.555 56.9756L313.254 88.4658C304.107 79.3739 292.149 73.1598 280.188 71.0238L287.993 27.3152ZM344.65 57.0707C359.867 72.3804 370.267 92.0416 374.271 113.272L330.64 121.501C328.295 109.066 322.158 97.4243 313.159 88.3707L344.65 57.0707ZM374.263 113.233C376.281 123.825 376.218 141.046 374.417 151.665L330.642 144.239C331.646 138.319 331.583 126.452 330.648 121.541L374.263 113.233ZM374.401 151.755C369.997 177.079 354.408 206.603 334.607 231.473L299.872 203.818C316.985 182.324 327.974 159.577 330.658 144.148L374.401 151.755ZM334.571 231.518C306.147 267.028 262.654 305.242 214.475 337.715L189.66 300.898C235.243 270.174 275.028 234.855 299.908 203.772L334.571 231.518ZM214.454 337.73L201.386 346.516L176.614 309.669L189.681 300.883L214.454 337.73ZM176.58 346.493L164.767 338.519L189.608 301.718L201.42 309.692L176.58 346.493ZM164.823 338.557C132.228 316.7 101.708 292.171 76.5126 267.669L107.467 235.839C130.555 258.291 158.95 281.16 189.551 301.68L164.823 338.557ZM76.496 267.653C37.5566 229.706 11.6574 191.622 4.083 154.285L47.5967 145.457C52.573 169.988 71.1184 200.416 107.484 235.855L76.496 267.653ZM4.09175 154.328C1.68347 142.575 1.47463 124.936 3.7479 113.174L47.3411 121.6C46.2183 127.409 46.3048 139.153 47.5879 145.415L4.09175 154.328ZM3.73096 113.263C11.4776 72.2895 41.6123 40.2983 82.0839 29.1021L93.9223 71.8948C69.2776 78.7126 51.8669 97.6628 47.3581 121.511L3.73096 113.263ZM82.0316 29.1166C88.4204 27.3324 96.5235 26.4264 103.419 26.0517C110.36 25.6746 118.441 25.7091 124.925 26.7153L118.117 70.5902C116.037 70.2675 111.456 70.0805 105.828 70.3863C100.155 70.6946 95.7808 71.3758 93.9746 71.8802L82.0316 29.1166ZM124.908 26.7126C152.668 30.9977 176.448 45.197 194.294 67.4818L159.638 95.2354C148.395 81.1968 134.376 73.1 118.134 70.5929L124.908 26.7126ZM194.356 67.5596C195.218 68.6458 195.652 69.0559 195.702 69.1015C195.731 69.1275 195.135 68.5764 193.916 68C192.586 67.3707 190.982 66.9334 189.289 66.8423C187.694 66.7564 186.602 67.0088 186.26 67.1022L197.942 109.938C191.074 111.811 183.041 111.973 174.929 108.135C167.923 104.821 162.997 99.4697 159.576 95.1576L194.356 67.5596ZM186.381 67.0695C185.928 67.1902 184.921 67.5072 183.751 68.1491C182.642 68.7573 182.004 69.319 181.913 69.4009C181.894 69.4183 182.235 69.1066 183.127 68.0929C183.998 67.1029 185.144 65.7313 186.743 63.7594L221.231 91.7226C215.519 98.7672 209.285 106.913 197.821 109.97L186.381 67.0695ZM186.791 63.7003C203.85 42.8075 231.313 28.5663 258.656 25.9621L262.866 70.1621C246.798 71.6923 230.407 80.4855 221.183 91.7817L186.791 63.7003ZM258.53 25.9745C268.169 25.0009 277.919 25.5322 287.96 27.3093L280.222 71.0298C273.577 69.8537 267.971 69.6468 262.992 70.1497L258.53 25.9745Z" fill="#1D3A70" mask="url(#path-1-inside-1_1737_850)"/>
</svg>
