<svg width="31" height="31" viewBox="0 0 31 31" fill="none" xmlns="http://www.w3.org/2000/svg">
<g clip-path="url(#clip0_224_1929)">
<g clip-path="url(#clip1_224_1929)">
<path d="M14.5489 0.810635C14.3848 0.869228 14.1856 0.968838 14.1094 1.02743C14.0274 1.09188 10.8985 3.93368 7.15436 7.3497C-0.538996 14.3634 0.0176447 13.7892 0.0645197 14.6505C0.0879572 15.0606 0.117254 15.1544 0.287176 15.4005C0.392645 15.5587 0.568426 15.7462 0.673895 15.8165C1.05475 16.0802 1.24811 16.1095 2.49616 16.1153H3.68561L3.69733 22.3673C3.71491 29.3282 3.68561 28.8302 4.10749 29.1349L4.30085 29.2696L8.21491 29.2872C11.9942 29.2989 12.1348 29.2989 12.3868 29.1876C12.545 29.1173 12.6915 28.9942 12.7676 28.877C12.879 28.6895 12.8848 28.5958 12.8848 24.7989V20.92H15.0528H17.2208V24.7989C17.2208 28.5958 17.2266 28.6895 17.338 28.877C17.4141 28.9942 17.5606 29.1173 17.7188 29.1876C17.9708 29.2989 18.1114 29.2989 21.8907 29.2872L25.8048 29.2696L25.9981 29.1349C26.42 28.8302 26.3907 29.3282 26.4083 22.3673L26.42 16.1153H27.6094C28.8575 16.1095 29.0508 16.0802 29.4317 15.8165C29.5372 15.7462 29.7188 15.5528 29.8243 15.3946C30.0001 15.1368 30.0235 15.0548 30.0469 14.6388C30.0821 13.7833 30.6387 14.3575 22.8575 7.26767C18.1348 2.96103 15.879 0.9454 15.7091 0.869228C15.3399 0.705166 14.9063 0.681728 14.5489 0.810635Z" fill="#D80E7A"/>
<path d="M20.209 2.50977C20.209 2.5625 26.9766 8.73242 27.0352 8.73242C27.0527 8.73242 27.0586 7.47266 27.0527 5.93164C27.0352 3.24805 27.0293 3.13086 26.918 2.93164C26.8477 2.80859 26.6895 2.67383 26.5371 2.5918C26.2793 2.46289 26.2734 2.46289 23.2441 2.46289C21.5742 2.46289 20.209 2.48633 20.209 2.50977Z" fill="#D80E7A"/>
</g>
</g>
<defs>
<clipPath id="clip0_224_1929">
<rect width="30" height="30" fill="white" transform="translate(0.0527344 0.00195312)"/>
</clipPath>
<clipPath id="clip1_224_1929">
<rect width="30" height="30" fill="white" transform="translate(0.0527344 0.00195312)"/>
</clipPath>
</defs>
</svg>
