<svg width="31" height="31" viewBox="0 0 31 31" fill="none" xmlns="http://www.w3.org/2000/svg">
<g clip-path="url(#clip0_323_2869)">
<path d="M14.9962 1.31039C14.8321 1.36898 14.6329 1.46859 14.5567 1.52719C14.4747 1.59164 11.3458 4.43344 7.60163 7.84945C-0.0917306 14.8631 0.46491 14.2889 0.511785 15.1502C0.535223 15.5604 0.56452 15.6541 0.734442 15.9002C0.83991 16.0584 1.01569 16.2459 1.12116 16.3163C1.50202 16.5799 1.69538 16.6092 2.94343 16.6151H4.13288L4.1446 22.867C4.16218 29.828 4.13288 29.3299 4.55475 29.6346L4.74811 29.7694L8.66218 29.787C12.4415 29.7987 12.5821 29.7987 12.8341 29.6873C12.9923 29.617 13.1387 29.494 13.2149 29.3768C13.3262 29.1893 13.3321 29.0955 13.3321 25.2987V21.4198H15.5001H17.668V25.2987C17.668 29.0955 17.6739 29.1893 17.7852 29.3768C17.8614 29.494 18.0079 29.617 18.1661 29.6873C18.418 29.7987 18.5587 29.7987 22.338 29.787L26.252 29.7694L26.4454 29.6346C26.8673 29.3299 26.838 29.828 26.8555 22.867L26.8673 16.6151H28.0567C29.3048 16.6092 29.4981 16.5799 29.879 16.3163C29.9844 16.2459 30.1661 16.0526 30.2716 15.8944C30.4473 15.6366 30.4708 15.5545 30.4942 15.1385C30.5294 14.283 31.086 14.8573 23.3048 7.76742C18.5821 3.46078 16.3262 1.44516 16.1563 1.36898C15.7872 1.20492 15.3536 1.18148 14.9962 1.31039Z" fill="#9D9D9D"/>
<path d="M20.6562 3.00977C20.6562 3.0625 27.4238 9.23242 27.4824 9.23242C27.5 9.23242 27.5059 7.97266 27.5 6.43164C27.4824 3.74805 27.4766 3.63086 27.3652 3.43164C27.2949 3.30859 27.1367 3.17383 26.9844 3.0918C26.7266 2.96289 26.7207 2.96289 23.6914 2.96289C22.0215 2.96289 20.6562 2.98633 20.6562 3.00977Z" fill="#9D9D9D"/>
</g>
<defs>
<clipPath id="clip0_323_2869">
<rect width="30" height="30" fill="white" transform="translate(0.5 0.501953)"/>
</clipPath>
</defs>
</svg>
