<svg width="20" height="21" viewBox="0 0 20 21" fill="none" xmlns="http://www.w3.org/2000/svg">
<g clip-path="url(#clip0_79_3094)">
<path d="M8.98439 1.83642C6.91017 2.09033 4.99611 3.01611 3.53126 4.47314C2.15626 5.84033 1.28517 7.53564 0.933608 9.52002C0.812514 10.188 0.800795 11.6099 0.91017 12.3052C1.03517 13.102 1.37111 14.2427 1.62111 14.727C1.68751 14.852 1.68361 14.8755 1.40236 16.2935L1.1172 17.7349L1.16408 18.0552C1.29689 18.9888 2.01955 19.6997 2.94923 19.813L3.3008 19.852L4.69142 19.5747L6.08595 19.2974L6.50783 19.4692C7.57814 19.9067 8.51955 20.106 9.68751 20.145C11.4531 20.2036 13.1016 19.7935 14.582 18.9302C17.0899 17.4653 18.7461 14.9731 19.1211 12.0981C19.1875 11.5669 19.1992 10.52 19.1367 9.96923C18.9531 8.25048 18.2344 6.53564 17.1289 5.17627C16.75 4.71142 16.0117 3.99658 15.543 3.64502C14.3438 2.74267 13.0274 2.18017 11.5039 1.90673C11.0117 1.8208 9.48048 1.77783 8.98439 1.83642ZM11.0742 3.57861C12.707 3.81298 14.2969 4.64111 15.4336 5.85205C18.2461 8.84814 18.1406 13.5083 15.1914 16.3481C12.9414 18.5122 9.68361 19.0552 6.82423 17.7388C6.63673 17.6528 6.42189 17.5708 6.34376 17.5552C6.24611 17.5356 5.77345 17.6177 4.66798 17.8364L3.12892 18.145L3.01955 18.063C2.81251 17.9106 2.81642 17.8989 3.14064 16.2661C3.46095 14.6645 3.46486 14.6216 3.31251 14.3208C3.26955 14.2349 3.15626 13.9731 3.06251 13.7349C2.40626 12.1099 2.34767 10.3208 2.89455 8.65673C3.63673 6.39111 5.41408 4.61377 7.6797 3.87158C8.78517 3.5083 9.91017 3.41064 11.0742 3.57861Z" fill="#1D3A70"/>
<path d="M9.68748 6.8403C8.99998 7.12936 8.96873 8.07858 9.6367 8.41452C9.81638 8.50436 10.1992 8.49655 10.3867 8.3989C10.957 8.10983 11.0039 7.30905 10.4765 6.93796C10.3359 6.8403 10.2656 6.81686 10.0469 6.80905C9.90232 6.80124 9.74216 6.81686 9.68748 6.8403Z" fill="#1D3A70"/>
<path d="M8.8082 9.37163C8.36679 9.57866 8.19492 10.0865 8.41757 10.5357C8.53476 10.7701 8.75351 10.9341 8.98007 10.9654L9.13632 10.9888L9.14804 12.7701L9.15976 14.5513L9.25742 14.7271C9.3121 14.8208 9.42929 14.9537 9.52304 15.0201L9.69492 15.1373L10.3238 15.149C11.0348 15.1646 11.1793 15.1373 11.3941 14.9498C11.9059 14.5005 11.6715 13.5748 11.0191 13.4888L10.8629 13.4654L10.8512 11.6841L10.8394 9.90288L10.7418 9.7271C10.6871 9.63335 10.5699 9.50054 10.4762 9.43413L10.3043 9.31694L9.63632 9.30522C9.04648 9.29741 8.94492 9.30522 8.8082 9.37163Z" fill="#1D3A70"/>
</g>
<defs>
<clipPath id="clip0_79_3094">
<rect width="20" height="20" fill="white" transform="translate(0 0.977051)"/>
</clipPath>
</defs>
</svg>
