<svg width="73" height="74" viewBox="0 0 73 74" fill="none" xmlns="http://www.w3.org/2000/svg">
<g filter="url(#filter0_d_992_1737)">
<circle cx="32.5" cy="28.9863" r="21" stroke="#1DE8B4"/>
</g>
<g clip-path="url(#clip0_992_1737)">
<path d="M32.8867 18.1023C32.5945 18.257 32.3711 18.5406 32.2379 18.9273C32.1562 19.1722 32.139 19.314 32.1261 19.9328L32.1176 20.6503L31.7953 21.4367C30.9273 23.5722 29.9304 25.4714 29.1527 26.4855C29.0152 26.666 28.723 26.9882 28.5082 27.1945C28.0957 27.5984 27.8336 27.9378 27.5801 28.3976C27.4941 28.5566 27.4168 28.6855 27.4168 28.6855C27.4125 28.6855 27.3008 28.6425 27.1718 28.591C26.9441 28.4964 26.8711 28.4921 25.3629 28.4792C24.4605 28.4706 23.6613 28.4835 23.4808 28.505C22.7203 28.6124 22.1058 29.1238 21.8867 29.8371C21.8051 30.1035 21.8008 30.2496 21.8008 34.1597C21.8008 38.564 21.7922 38.3964 22.0414 38.8476C22.1875 39.1054 22.5097 39.4277 22.7676 39.5738C23.1886 39.8058 23.266 39.8144 25.1051 39.8144C26.1234 39.8144 26.884 39.7929 27 39.7671C27.1074 39.7414 27.3008 39.6683 27.4297 39.6039L27.666 39.4835L28.3105 39.5609C30.5707 39.8359 32.4527 39.939 35.4433 39.9562C37.682 39.9648 37.7808 39.9605 38.2621 39.8703C40.5136 39.4406 41.7383 38.3148 41.7383 36.6691V36.2867L42.0004 35.9773C42.3226 35.5906 42.473 35.3328 42.6234 34.8945C42.7222 34.6023 42.7394 34.4777 42.7437 34.0566C42.748 33.7042 42.7265 33.4722 42.6664 33.2488L42.589 32.9394L42.7695 32.6601C43.0488 32.2304 43.1648 31.8781 43.1906 31.3667C43.2207 30.7566 43.1047 30.3054 42.791 29.7812L42.6406 29.532L42.7308 29.1624C42.8511 28.6726 42.8297 28.071 42.675 27.6499C42.314 26.6746 41.4117 26.073 40.0109 25.8667C39.6199 25.8109 39.332 25.8023 38.5371 25.8195C37.5058 25.8453 37.0289 25.8968 35.9804 26.1031C35.6367 26.1718 35.3488 26.2191 35.3402 26.2105C35.3101 26.1804 35.4176 25.4456 35.5121 25.046C35.5594 24.8355 35.7226 24.2511 35.873 23.7441C36.2855 22.3605 36.3414 22.0597 36.3414 21.1874C36.3414 20.3324 36.2898 20.0488 36.0105 19.4902C35.6968 18.8499 35.1168 18.3558 34.3906 18.1152C34.1972 18.0507 33.9609 18.0164 33.6172 17.9992C33.1359 17.9777 33.1187 17.982 32.8867 18.1023ZM33.9824 19.3398C34.8719 19.589 35.25 20.5515 34.9965 21.948C34.9449 22.223 34.8074 22.7773 34.6871 23.1726C34.3691 24.221 34.2703 24.5734 34.1801 25.0546C33.9222 26.3609 34.0812 27.1472 34.657 27.4437C34.9492 27.5941 35.0867 27.5855 36.1308 27.3835C37.3726 27.1386 37.8797 27.0828 38.7949 27.0828C39.7273 27.0828 40.4019 27.1945 40.8488 27.4222C41.0594 27.5339 41.3129 27.7917 41.4246 28.0152C41.5793 28.3203 41.5535 28.7585 41.3601 29.1753C41.2183 29.4804 41.184 29.7382 41.2699 29.8972C41.2957 29.9445 41.4117 30.1035 41.5277 30.2453C41.7812 30.5589 41.9101 30.8812 41.9101 31.1992C41.9101 31.4785 41.7855 31.8351 41.6051 32.0714C41.532 32.166 41.416 32.3206 41.3429 32.4152C41.1539 32.6687 41.1453 32.8535 41.3129 33.2617C41.4289 33.5539 41.4504 33.6613 41.4547 33.9921C41.459 34.3445 41.4461 34.4046 41.3172 34.6796C41.2054 34.9117 41.0937 35.0535 40.8101 35.3242C40.3847 35.7367 40.3375 35.8398 40.4105 36.2394C40.4793 36.6175 40.4406 37.0515 40.316 37.305C39.9379 38.0956 38.7218 38.6156 37.0976 38.6843C36.2726 38.7144 32.066 38.6199 31.1465 38.5511C30.0722 38.4652 28.7445 38.332 28.5254 38.289C28.4394 38.2718 28.4394 38.2417 28.4523 34.2414C28.4609 31.5601 28.448 30.1507 28.4179 30.0304C28.3664 29.8113 28.4222 29.6136 28.6844 29.0937C28.9035 28.664 29.0238 28.5007 29.5179 28.0152C30.6738 26.8722 31.9715 24.539 33.2133 21.3808L33.4238 20.8437L33.4109 20.1906C33.398 19.7652 33.4109 19.4816 33.4453 19.3828C33.5011 19.2109 33.5097 19.2109 33.9824 19.3398ZM26.8582 29.8714C26.9226 29.9187 27.0215 30.0261 27.0773 30.1035L27.1718 30.2453V34.1382C27.1718 37.8464 27.1676 38.0398 27.0902 38.1816C27.0472 38.2632 26.9613 38.3706 26.8968 38.4179C26.7851 38.4996 26.7121 38.5039 25.1609 38.5167C23.6054 38.5253 23.5367 38.5253 23.3992 38.4394C23.3218 38.3921 23.223 38.2933 23.1758 38.216C23.0941 38.0785 23.0898 37.9882 23.0898 34.1468C23.0898 30.2367 23.0898 30.2195 23.1801 30.0734C23.2316 29.996 23.339 29.8929 23.425 29.8456C23.5754 29.7683 23.6699 29.764 25.1609 29.7726C26.682 29.7812 26.7379 29.7855 26.8582 29.8714Z" fill="#1DE8B4"/>
</g>
<defs>
<filter id="filter0_d_992_1737" x="0" y="0.486328" width="73" height="73" filterUnits="userSpaceOnUse" color-interpolation-filters="sRGB">
<feFlood flood-opacity="0" result="BackgroundImageFix"/>
<feColorMatrix in="SourceAlpha" type="matrix" values="0 0 0 0 0 0 0 0 0 0 0 0 0 0 0 0 0 0 127 0" result="hardAlpha"/>
<feOffset dx="4" dy="8"/>
<feGaussianBlur stdDeviation="7.5"/>
<feColorMatrix type="matrix" values="0 0 0 0 0.94902 0 0 0 0 0.231373 0 0 0 0 0.333333 0 0 0 0.2 0"/>
<feBlend mode="normal" in2="BackgroundImageFix" result="effect1_dropShadow_992_1737"/>
<feBlend mode="normal" in="SourceGraphic" in2="effect1_dropShadow_992_1737" result="shape"/>
</filter>
<clipPath id="clip0_992_1737">
<rect width="22" height="22" fill="white" transform="translate(21.5 17.9863)"/>
</clipPath>
</defs>
</svg>
