<svg width="16" height="22" viewBox="0 0 16 22" fill="none" xmlns="http://www.w3.org/2000/svg">
<path d="M6.75382 0.0859127C4.9878 0.386694 3.58272 1.10857 2.34952 2.34177C0.914361 3.77263 0.140924 5.54724 0.0292053 7.64841C-0.0567322 9.23396 0.458893 11.0902 1.63624 13.4234C2.646 15.4215 3.93507 17.398 5.68389 19.6367C6.60342 20.814 7.41983 21.7765 7.60889 21.9011C7.81085 22.0386 8.18897 22.0386 8.39092 21.9011C8.68311 21.7078 10.4835 19.482 11.5019 18.0683C13.8007 14.8629 15.3433 11.8293 15.7944 9.61208C15.9534 8.83435 16.005 8.26287 15.9706 7.64841C15.8589 5.54724 15.0855 3.77263 13.6503 2.34177C12.3956 1.08279 10.9304 0.348022 9.13428 0.0687256C8.53272 -0.0258064 7.35108 -0.0172119 6.75382 0.0859127ZM9.09561 4.14216C9.95499 4.39997 10.6468 4.88123 11.1796 5.59451C12.0819 6.79763 12.228 8.33591 11.5663 9.69373C11.171 10.5058 10.5437 11.1375 9.74014 11.5371C9.21592 11.7992 8.78194 11.9066 8.1503 11.9324C7.7421 11.9496 7.54874 11.9367 7.22647 11.8679C4.94053 11.3953 3.52686 9.07068 4.17999 6.85779C4.60108 5.43552 5.73116 4.39997 7.23077 4.06052C7.68194 3.9574 8.61436 4.00037 9.09561 4.14216Z" fill="#D80E7A"/>
</svg>
