<svg width="6" height="9" viewBox="0 0 6 9" fill="none" xmlns="http://www.w3.org/2000/svg">
<path d="M6 3.75C6 5.40675 3 8.25 3 8.25C3 8.25 0 5.40675 0 3.75C0 2.95435 0.316071 2.19129 0.87868 1.62868C1.44129 1.06607 2.20435 0.75 3 0.75C3.79565 0.75 4.55871 1.06607 5.12132 1.62868C5.68393 2.19129 6 2.95435 6 3.75Z" fill="#234F68"/>
<path d="M2.9998 4.0499C3.11915 4.0499 3.23361 4.00249 3.318 3.9181C3.40239 3.83371 3.4498 3.71925 3.4498 3.5999C3.4498 3.48055 3.40239 3.3661 3.318 3.2817C3.23361 3.19731 3.11915 3.1499 2.9998 3.1499C2.88046 3.1499 2.766 3.19731 2.68161 3.2817C2.59722 3.3661 2.5498 3.48055 2.5498 3.5999C2.5498 3.71925 2.59722 3.83371 2.68161 3.9181C2.766 4.00249 2.88046 4.0499 2.9998 4.0499Z" fill="white" stroke="white" stroke-width="1.25" stroke-linecap="round" stroke-linejoin="round"/>
</svg>
