<svg width="20" height="21" viewBox="0 0 20 21" fill="none" xmlns="http://www.w3.org/2000/svg">
<path d="M6.26953 2.16846C5.5 2.26611 4.86719 2.57861 4.3125 3.1333C3.78516 3.66064 3.48438 4.22705 3.36328 4.93018C3.33984 5.05908 3.32031 5.65674 3.32031 6.26221C3.32031 7.35986 3.32031 7.35986 3.41797 7.55908C3.56641 7.85205 3.76562 7.97705 4.11719 7.99268C4.47266 8.0083 4.6875 7.90674 4.875 7.6333L5 7.4458V6.52002C5 6.01221 5.01953 5.46924 5.03906 5.31299C5.11328 4.74658 5.44531 4.28564 5.96875 4.02783L6.26562 3.87939H10.8164H15.3711L15.5859 3.96533C16.0547 4.15674 16.418 4.55127 16.5625 5.02393C16.6406 5.27002 16.6406 5.40283 16.6406 10.5005C16.6406 15.5981 16.6406 15.731 16.5625 15.9771C16.418 16.4497 16.0547 16.8442 15.5859 17.0356L15.3711 17.1216H10.8164H6.26562L5.96875 16.9731C5.44531 16.7153 5.11328 16.2544 5.03906 15.688C5.01953 15.5317 5 14.9888 5 14.481V13.563L4.88672 13.3833C4.81641 13.2778 4.69922 13.1606 4.59375 13.0981C4.43359 13.0044 4.38281 12.9927 4.125 13.0083C3.76562 13.0239 3.56641 13.145 3.41797 13.4419C3.32031 13.6411 3.32031 13.6411 3.32031 14.7388C3.32031 15.3442 3.33984 15.9419 3.36328 16.0708C3.48438 16.7739 3.78516 17.3403 4.3125 17.8677C4.77734 18.3325 5.22266 18.5864 5.89844 18.77C6.13672 18.8364 6.46875 18.8403 10.8203 18.8403H15.4883L15.8203 18.7505C17.043 18.4263 17.9258 17.5435 18.25 16.3208L18.3398 15.9888V10.5005V5.01221L18.25 4.68018C17.9297 3.46533 17.0625 2.59424 15.8398 2.25049L15.5273 2.16064L10.957 2.15674C8.44531 2.15283 6.33594 2.15674 6.26953 2.16846Z" fill="#1D3A70"/>
<path d="M8.89844 7.1958C8.54297 7.32471 8.35547 7.56299 8.32812 7.92236C8.30078 8.30518 8.35156 8.38721 8.99609 9.04346L9.58203 9.64111L5.91406 9.64893L2.24609 9.66065L2.0625 9.77002C1.79297 9.92627 1.66016 10.1685 1.66016 10.5005C1.66016 10.8325 1.79297 11.0747 2.0625 11.231L2.24609 11.3403L5.91406 11.3521L9.58203 11.3599L8.99609 11.9575C8.34766 12.6138 8.30078 12.6958 8.32812 13.0825C8.36719 13.6099 8.87891 13.9614 9.40625 13.8208C9.57422 13.7739 9.71094 13.6489 10.9688 12.3989C11.7305 11.645 12.3828 10.9614 12.4258 10.8833C12.5273 10.688 12.5273 10.313 12.4258 10.1177C12.3828 10.0396 11.7383 9.36377 10.9883 8.61768C9.86719 7.50049 9.59766 7.25049 9.45703 7.19971C9.25 7.1294 9.08984 7.12549 8.89844 7.1958Z" fill="#1D3A70"/>
</svg>
