<svg width="31" height="31" viewBox="0 0 31 31" fill="none" xmlns="http://www.w3.org/2000/svg">
<path d="M22.7246 0.836914C19.6426 1.39355 17.375 4.11816 17.375 7.25293C17.375 8.8877 18.3652 11.0205 20.4688 13.9092C21.6406 15.5264 23.1934 17.3955 23.4746 17.542C23.6855 17.6475 24.1895 17.6475 24.4004 17.542C24.6816 17.3955 26.2344 15.5264 27.4062 13.9092C29.5098 11.0205 30.5 8.8877 30.5 7.25293C30.5 4.10059 28.2148 1.37598 25.1152 0.836914C24.5234 0.731445 23.3047 0.731445 22.7246 0.836914ZM24.7051 4.65137C25.5723 4.90332 26.3398 5.67676 26.5977 6.54395C26.6504 6.71973 26.6914 7.06543 26.6914 7.31152C26.6914 8.30176 26.1875 9.1748 25.3145 9.70215C24.5 10.1943 23.375 10.1943 22.5605 9.70215C21.6875 9.1748 21.1836 8.30176 21.1836 7.31152C21.1836 6.33301 21.6758 5.46582 22.5312 4.93262C23.1172 4.56934 24.0254 4.45215 24.7051 4.65137Z" fill="#9D9D9D"/>
<path d="M5.32245 10.0303C2.90253 11.003 0.863463 11.8526 0.793151 11.9112C0.482604 12.1924 0.500182 11.6768 0.500182 21.2393V30.1338L0.646666 30.3565C0.728697 30.4737 0.875182 30.6143 0.968932 30.6612C1.37909 30.8721 1.44354 30.8545 5.77362 29.1202L9.84588 27.4913L9.86346 17.8702C9.87518 10.1885 9.86346 8.24907 9.80487 8.25493C9.76385 8.25493 7.74823 9.05766 5.32245 10.0303Z" fill="#9D9D9D"/>
<path d="M11.7617 17.8701L11.7793 27.4912L15.4121 28.9443C17.4102 29.7471 19.0918 30.415 19.1504 30.4326C19.2442 30.4619 19.25 30.0752 19.25 22.8916V15.3213L18.8457 14.7588C18.377 14.0967 17.6739 13.0186 17.334 12.4385C17.0352 11.9229 16.3731 10.5928 16.2383 10.2354L16.1387 9.96582L13.9883 9.11035C12.8047 8.63574 11.8203 8.24902 11.791 8.24902C11.7676 8.24902 11.7559 12.5791 11.7617 17.8701Z" fill="#9D9D9D"/>
<path d="M29.9551 13.3818C29 14.8877 27.207 17.2256 26.1113 18.3975C25.3965 19.1592 24.8105 19.4404 23.9375 19.4404C23.0293 19.4404 22.4844 19.165 21.6816 18.3096L21.125 17.7119V24.2275C21.125 27.8135 21.1426 30.749 21.1719 30.749C21.3125 30.749 30.0723 27.1924 30.207 27.0811C30.2949 27.0049 30.4004 26.8701 30.4355 26.7822C30.4824 26.6592 30.5 24.749 30.4883 19.5928L30.4707 12.5674L29.9551 13.3818Z" fill="#9D9D9D"/>
</svg>
