<svg width="28" height="29" viewBox="0 0 28 29" fill="none" xmlns="http://www.w3.org/2000/svg">
<g clip-path="url(#clip0_33_880)">
<path d="M13.4532 0.884029C12.9391 1.15747 12.7969 1.49653 12.7969 2.47544V3.17544L12.5946 3.20825C9.52113 3.72778 6.95628 6.05747 6.09769 9.10903C5.86253 9.92934 5.84066 10.1973 5.79691 12.9426C5.75863 15.5512 5.75316 15.6387 5.61644 16.1965C5.20628 17.8864 4.39691 19.259 3.15003 20.3747C2.47191 20.9872 2.19847 21.6817 2.3516 22.4473C2.48285 23.1254 2.8766 23.6286 3.50003 23.9293L3.8555 24.0989H14H24.1446L24.5 23.9293C25.55 23.4262 25.9766 22.2286 25.4844 21.184C25.3641 20.9215 25.1727 20.6918 24.6258 20.1504C23.4118 18.9473 22.7774 17.8208 22.3836 16.1965C22.2469 15.6387 22.2414 15.5512 22.2032 12.9426C22.1594 10.1973 22.1375 9.92934 21.9024 9.10903C21.3063 6.99262 19.8625 5.16606 17.9703 4.11606C17.2047 3.69497 16.2477 3.35591 15.411 3.21372L15.2032 3.17544V2.48637C15.2032 2.10903 15.1758 1.70434 15.143 1.5895C15.061 1.31606 14.8039 1.01528 14.5414 0.884029C14.2625 0.741842 13.7211 0.741842 13.4532 0.884029Z" fill="#8A8A8A"/>
<path d="M9.67975 25.2965C9.67975 25.3895 9.93678 26.1223 10.0516 26.3411C10.4727 27.1778 11.1891 27.9051 11.9876 28.3043C12.6876 28.6543 13.2016 28.7747 14.0001 28.7747C14.7985 28.7747 15.3126 28.6543 16.0126 28.3043C16.811 27.9051 17.5274 27.1778 17.9485 26.3411C18.0633 26.1223 18.3204 25.3895 18.3204 25.2965C18.3204 25.2856 16.379 25.2747 14.0001 25.2747C11.6266 25.2747 9.67975 25.2856 9.67975 25.2965Z" fill="#8A8A8A"/>
</g>
<defs>
<clipPath id="clip0_33_880">
<rect width="28" height="28" fill="white" transform="translate(6.10352e-05 0.774658)"/>
</clipPath>
</defs>
</svg>
