<svg width="24" height="24" viewBox="0 0 24 24" fill="none" xmlns="http://www.w3.org/2000/svg">
<path d="M11.1654 0.379025C10.6513 0.652462 10.5091 0.991526 10.5091 1.97043V2.67043L10.3068 2.70324C7.23335 3.22277 4.6685 5.55246 3.80991 8.60403C3.57475 9.42434 3.55288 9.69231 3.50913 12.4376C3.47085 15.0462 3.46538 15.1337 3.32866 15.6915C2.9185 17.3814 2.10913 18.754 0.862252 19.8697C0.184127 20.4822 -0.0893107 21.1767 0.0638143 21.9423C0.195064 22.6204 0.588814 23.1236 1.21225 23.4243L1.56772 23.5939H11.7123H21.8568L22.2123 23.4243C23.2623 22.9212 23.6888 21.7236 23.1966 20.679C23.0763 20.4165 22.8849 20.1868 22.338 19.6454C21.124 18.4423 20.4896 17.3157 20.0958 15.6915C19.9591 15.1337 19.9537 15.0462 19.9154 12.4376C19.8716 9.69231 19.8498 9.42434 19.6146 8.60403C19.0185 6.48762 17.5748 4.66106 15.6826 3.61106C14.9169 3.18996 13.9599 2.8509 13.1232 2.70871L12.9154 2.67043V1.98137C12.9154 1.60402 12.888 1.19934 12.8552 1.08449C12.7732 0.811056 12.5162 0.510275 12.2537 0.379025C11.9748 0.236837 11.4333 0.236837 11.1654 0.379025Z" fill="white"/>
</svg>
