<svg width="13" height="20" viewBox="0 0 13 20" fill="none" xmlns="http://www.w3.org/2000/svg">
<path d="M1.65625 0.0351562C1.28906 0.148438 0.964844 0.429688 0.800781 0.777344L0.699219 0.996094V10V19.0039L0.800781 19.2227C0.929688 19.4922 1.15625 19.7266 1.42969 19.8711L1.63672 19.9805H6.5H11.3633L11.5703 19.8711C11.8438 19.7266 12.0703 19.4922 12.1992 19.2227L12.3008 19.0039V10V0.996094L12.1992 0.777344C12.0703 0.507812 11.8438 0.273438 11.5703 0.128906L11.3633 0.0195312L6.55859 0.0117188C3.91797 0.0078125 1.71094 0.0195312 1.65625 0.0351562ZM7.98828 1.01562C8.07031 1.0625 8.08594 1.17188 8.01562 1.24219C7.94922 1.30859 5.05078 1.30859 4.98438 1.24219C4.91797 1.17578 4.92578 1.06641 5.00781 1.01953C5.10156 0.964844 7.88672 0.960938 7.98828 1.01562ZM11.3438 9.82422V17.5H6.5H1.65625V9.82422V2.14844H6.5H11.3438V9.82422ZM6.80859 18.0898C7.20703 18.3125 7.26562 18.8125 6.93359 19.1133C6.66797 19.3555 6.33203 19.3555 6.06641 19.1133C5.81641 18.8867 5.77734 18.5742 5.96484 18.293C6.14844 18.0195 6.52344 17.9297 6.80859 18.0898Z" fill="#F74682"/>
</svg>
