<svg width="20" height="21" viewBox="0 0 20 21" fill="none" xmlns="http://www.w3.org/2000/svg">
<g clip-path="url(#clip0_79_3121)">
<path d="M9.32422 0.941895C8.66016 1.61377 7.85547 2.10205 6.71875 2.53174C5.25781 3.08643 3.19141 3.46924 1.69141 3.46924C1.33203 3.46924 1.19141 3.51611 1.05859 3.68799C0.976562 3.79346 0.976562 3.79736 0.976562 7.52783C0.976562 11.4185 0.984375 11.5825 1.15234 12.3755C1.30469 13.1138 1.60938 13.938 1.97656 14.6372C3.1875 16.9302 5.53516 18.8833 8.45703 20.0278C9.22266 20.3286 9.78125 20.5005 9.98828 20.5005C10.082 20.5005 10.3867 20.4224 10.6719 20.3286C12.4727 19.7349 14.1719 18.8013 15.4883 17.688C15.9141 17.3286 16.6602 16.5669 16.9766 16.1685C17.8398 15.0903 18.4727 13.8208 18.7656 12.5669C19 11.5786 19.0039 11.52 19.0039 7.51221C19.0039 4.03564 19 3.83252 18.9336 3.73096C18.8047 3.53564 18.6484 3.46924 18.2969 3.46924C17.6211 3.46924 16.4492 3.34814 15.625 3.19189C14.3203 2.94189 13.1953 2.5708 12.1875 2.05908C11.5352 1.72705 11.0273 1.35205 10.5664 0.871582L10.2148 0.500488H9.98438H9.75781L9.32422 0.941895ZM10.9648 2.56299C12.5273 3.58643 15.1211 4.34424 17.4805 4.46924L17.9727 4.49658L17.957 7.91846C17.9453 11.6724 17.9492 11.5552 17.6953 12.5122C17.3398 13.856 16.6523 15.0396 15.5859 16.1411C14.2422 17.5317 12.5273 18.5942 10.5117 19.2817L9.98828 19.4575L9.65234 19.3481C6.98438 18.4888 4.65234 16.8325 3.33203 14.856C2.72266 13.9419 2.32031 12.9497 2.10156 11.8091C2.02344 11.395 2.01953 11.2427 2.00391 7.93018L1.98828 4.48486H2.21484C2.79297 4.48486 4.02344 4.32471 4.92188 4.1333C6.89844 3.71533 8.62891 2.95752 9.69141 2.04736L9.98047 1.80127L10.293 2.06299C10.4648 2.20752 10.7656 2.43408 10.9648 2.56299Z" fill="#1D3A70"/>
<path d="M9.47656 6.53955C8.78906 6.70361 8.21094 7.28174 8.02734 7.98096C7.98828 8.14502 7.96875 8.40283 7.96875 8.84814V9.48486H7.64844C7.39062 9.48486 7.29688 9.50049 7.19531 9.56299C6.95312 9.71143 6.95312 9.6958 6.95312 12.0122C6.95312 14.0396 6.95703 14.1177 7.03125 14.2427C7.07422 14.313 7.16406 14.4028 7.23438 14.4458C7.35938 14.52 7.4375 14.5239 9.98047 14.5239C12.4414 14.5239 12.6055 14.52 12.7305 14.4536C12.8047 14.4146 12.8984 14.3208 12.9375 14.2466C13.0039 14.1255 13.0078 13.9731 13.0078 12.0122C13.0078 9.6958 13.0078 9.71143 12.7656 9.56299C12.6641 9.50049 12.5703 9.48486 12.3164 9.48486H11.9922V8.84814C11.9922 8.40283 11.9727 8.14502 11.9336 7.98096C11.6523 6.91455 10.5664 6.27393 9.47656 6.53955ZM10.4922 7.66846C10.707 7.80127 10.9102 8.10205 10.9531 8.34033C10.9648 8.42236 10.9766 8.71143 10.9766 8.98486V9.48486H9.97656H8.97656L8.98828 8.88721C9.00391 8.33252 9.01172 8.27783 9.11328 8.0708C9.29688 7.6958 9.59375 7.52393 10.0234 7.53955C10.2539 7.55127 10.332 7.5708 10.4922 7.66846ZM11.9531 11.9849V13.4692H9.98047H8.00781V11.9849V10.5005H9.98047H11.9531V11.9849Z" fill="#1D3A70"/>
</g>
<defs>
<clipPath id="clip0_79_3121">
<rect width="20" height="20" fill="white" transform="translate(0 0.500488)"/>
</clipPath>
</defs>
</svg>
