<svg width="24" height="29" viewBox="0 0 24 29" fill="none" xmlns="http://www.w3.org/2000/svg">
<path fill-rule="evenodd" clip-rule="evenodd" d="M18.2857 7.11226C18.2857 10.6053 15.4715 13.4369 12 13.4369C8.52849 13.4369 5.71429 10.6053 5.71429 7.11226C5.71429 3.61925 8.52849 0.787598 12 0.787598C15.4715 0.787598 18.2857 3.61925 18.2857 7.11226ZM0.887096 28.3861C0.397167 28.3861 0 27.9889 0 27.499C0 24.1869 0 22.5308 0.5813 21.2658C1.09262 20.153 1.90852 19.2482 2.91207 18.6812C4.05293 18.0367 5.5464 18.0367 8.53333 18.0367H15.4667C18.4536 18.0367 19.9471 18.0367 21.0879 18.6812C22.0915 19.2482 22.9074 20.153 23.4187 21.2658C24 22.5308 24 24.1869 24 27.499V27.499C24 27.9889 23.6028 28.3861 23.1129 28.3861H0.887096Z" fill="#F74682"/>
</svg>
