<svg width="24" height="28" viewBox="0 0 24 28" fill="none" xmlns="http://www.w3.org/2000/svg">
<path fill-rule="evenodd" clip-rule="evenodd" d="M18.2857 6.78742C18.2857 10.2589 15.4715 13.0731 12 13.0731C8.52849 13.0731 5.71429 10.2589 5.71429 6.78742C5.71429 3.31592 8.52849 0.501709 12 0.501709C15.4715 0.501709 18.2857 3.31592 18.2857 6.78742ZM0.881634 27.9303C0.394721 27.9303 0 27.5356 0 27.0486C0 23.7569 0 22.1111 0.5813 20.8538C1.09262 19.7478 1.90852 18.8487 2.91207 18.2851C4.05293 17.6446 5.5464 17.6446 8.53333 17.6446H15.4667C18.4536 17.6446 19.9471 17.6446 21.0879 18.2851C22.0915 18.8487 22.9074 19.7478 23.4187 20.8538C24 22.1111 24 23.7569 24 27.0486V27.0486C24 27.5356 23.6053 27.9303 23.1184 27.9303H0.881634Z" fill="#9D9D9D"/>
</svg>
