<svg width="8" height="8" viewBox="0 0 8 8" fill="none" xmlns="http://www.w3.org/2000/svg">
<path d="M2.72009 2.58848L3.69434 0.626478C3.7227 0.569698 3.76632 0.52194 3.8203 0.48856C3.87428 0.455181 3.9365 0.4375 3.99997 0.4375C4.06344 0.4375 4.12565 0.455181 4.17963 0.48856C4.23362 0.52194 4.27723 0.569698 4.30559 0.626478L5.27984 2.58848L7.45784 2.90498C7.52066 2.91369 7.57977 2.93989 7.62842 2.98058C7.67706 3.02128 7.71329 3.07483 7.73296 3.13513C7.75263 3.19542 7.75495 3.26003 7.73965 3.32159C7.72436 3.38314 7.69207 3.43915 7.64647 3.48323L6.07072 5.00948L6.44272 7.16573C6.49034 7.44248 6.19784 7.65323 5.94772 7.52273L3.99997 6.50423L2.05184 7.52273C1.80209 7.6536 1.50959 7.44248 1.55722 7.16535L1.92922 5.0091L0.353467 3.48285C0.308087 3.43874 0.275991 3.38279 0.260829 3.32135C0.245666 3.2599 0.248044 3.19544 0.267693 3.13528C0.287342 3.07512 0.323473 3.02169 0.37198 2.98104C0.420487 2.94039 0.479424 2.91417 0.542092 2.90535L2.72009 2.58848Z" fill="#FFC42D"/>
</svg>
