<svg width="40" height="34" viewBox="0 0 40 34" fill="none" xmlns="http://www.w3.org/2000/svg">
<rect width="40" height="34" rx="10" fill="#D80E7A"/>
<path d="M15.574 29L14.65 27.368H14.254V29H13.414V24.812H14.986C15.31 24.812 15.586 24.87 15.814 24.986C16.042 25.098 16.212 25.252 16.324 25.448C16.44 25.64 16.498 25.856 16.498 26.096C16.498 26.372 16.418 26.622 16.258 26.846C16.098 27.066 15.86 27.218 15.544 27.302L16.546 29H15.574ZM14.254 26.738H14.956C15.184 26.738 15.354 26.684 15.466 26.576C15.578 26.464 15.634 26.31 15.634 26.114C15.634 25.922 15.578 25.774 15.466 25.67C15.354 25.562 15.184 25.508 14.956 25.508H14.254V26.738ZM20.3478 27.266C20.3478 27.386 20.3398 27.494 20.3238 27.59H17.8938C17.9138 27.83 17.9978 28.018 18.1458 28.154C18.2938 28.29 18.4758 28.358 18.6918 28.358C19.0038 28.358 19.2258 28.224 19.3578 27.956H20.2638C20.1678 28.276 19.9838 28.54 19.7118 28.748C19.4398 28.952 19.1058 29.054 18.7098 29.054C18.3898 29.054 18.1018 28.984 17.8458 28.844C17.5938 28.7 17.3958 28.498 17.2518 28.238C17.1118 27.978 17.0417 27.678 17.0417 27.338C17.0417 26.994 17.1118 26.692 17.2518 26.432C17.3918 26.172 17.5878 25.972 17.8398 25.832C18.0918 25.692 18.3818 25.622 18.7098 25.622C19.0258 25.622 19.3078 25.69 19.5558 25.826C19.8078 25.962 20.0018 26.156 20.1378 26.408C20.2778 26.656 20.3478 26.942 20.3478 27.266ZM19.4778 27.026C19.4738 26.81 19.3958 26.638 19.2438 26.51C19.0918 26.378 18.9058 26.312 18.6858 26.312C18.4778 26.312 18.3018 26.376 18.1578 26.504C18.0178 26.628 17.9318 26.802 17.8998 27.026H19.4778ZM22.8029 25.628C23.1989 25.628 23.5189 25.754 23.7629 26.006C24.0069 26.254 24.1289 26.602 24.1289 27.05V29H23.2889V27.164C23.2889 26.9 23.2229 26.698 23.0909 26.558C22.9589 26.414 22.7789 26.342 22.5509 26.342C22.3189 26.342 22.1349 26.414 21.9989 26.558C21.8669 26.698 21.8009 26.9 21.8009 27.164V29H20.9609V25.676H21.8009V26.09C21.9129 25.946 22.0549 25.834 22.2269 25.754C22.4029 25.67 22.5949 25.628 22.8029 25.628ZM25.9057 26.366V27.974C25.9057 28.086 25.9317 28.168 25.9837 28.22C26.0397 28.268 26.1317 28.292 26.2597 28.292H26.6497V29H26.1217C25.4137 29 25.0597 28.656 25.0597 27.968V26.366H24.6637V25.676H25.0597V24.854H25.9057V25.676H26.6497V26.366H25.9057Z" fill="white"/>
<path d="M16.8359 4.92305C16.4176 4.99336 15.9781 5.17266 15.6055 5.42578C15.3488 5.60156 14.948 6.02695 14.7969 6.29062L14.6738 6.50508L14.2871 6.52617C13.8441 6.55078 13.5875 6.61406 13.2219 6.78281C12.2445 7.23281 11.6258 8.14336 11.5414 9.25078C11.5133 9.61992 11.566 9.97851 11.6996 10.3758C11.8367 10.766 11.9844 11.0051 12.3113 11.3496C12.459 11.5113 12.582 11.6695 12.582 11.7012C12.582 11.7363 12.4555 12.2496 12.3008 12.8437C12.1461 13.4379 12.0195 13.9477 12.0195 13.9758C12.0195 14.0074 12.1004 14.2113 12.1953 14.4293C12.2937 14.6473 12.3676 14.8512 12.3641 14.8793C12.357 14.9109 12.2094 15.0305 12.0371 15.1465C11.791 15.3117 11.7172 15.3785 11.7102 15.4488C11.7031 15.5016 11.7594 15.6738 11.8402 15.8496C11.9211 16.0184 11.9844 16.1766 11.9844 16.2012C11.9844 16.2258 11.8332 16.3418 11.6504 16.4613C11.2531 16.7145 11.2496 16.725 11.4605 17.1363C11.5379 17.2945 11.5977 17.4527 11.5906 17.4949C11.5836 17.5441 11.5238 17.6004 11.4219 17.6566C11.0879 17.8324 11 17.9027 11 17.9941C11 18.068 11.4641 18.9609 11.5695 19.091C11.5906 19.1156 11.6363 19.1367 11.675 19.1367C11.7453 19.1367 12.8633 18.5004 12.9266 18.423C12.9477 18.3984 13.3449 17.066 13.8125 15.4629C14.2766 13.8562 14.6738 12.5027 14.6949 12.4535C14.7266 12.3727 14.7652 12.3516 14.948 12.3164C15.7145 12.1652 16.4598 11.5957 16.8887 10.8223L17.0187 10.5937H17.2508C17.5812 10.5937 17.9258 10.5375 18.2211 10.4391C18.3582 10.3934 18.4742 10.3582 18.4812 10.3652C18.4883 10.3687 18.5199 10.6992 18.5551 11.0965C18.6078 11.673 18.6359 11.8559 18.6992 11.9895C18.759 12.123 19.3145 12.6961 21.4168 14.7879C22.8723 16.2328 24.1062 17.4387 24.1625 17.4703C24.3559 17.5758 24.4367 17.5266 25.0625 16.9113C25.3824 16.5949 26.3984 15.593 27.323 14.6824L29 13.0266V12.8684V12.7102L26.3809 10.1156C24.9395 8.68828 23.6914 7.47539 23.6105 7.42266C23.5297 7.36992 23.3926 7.29961 23.3047 7.27148C23.2133 7.24336 22.4855 7.15898 21.6031 7.07812C20.7523 7.00078 20.0562 6.93047 20.0527 6.92695C20.0492 6.92344 20.0141 6.825 19.9684 6.70898C19.6484 5.84766 18.8117 5.15156 17.8555 4.95117C17.627 4.90195 17.0504 4.88789 16.8359 4.92305ZM17.6516 5.54531C17.7922 5.57344 18.0102 5.63672 18.1367 5.68594C18.5797 5.86172 19.0684 6.31172 19.2793 6.74062L19.3672 6.91289L19.1773 6.99023C18.8328 7.13086 18.5797 7.37344 18.4285 7.70039C18.309 7.96055 18.2949 8.21367 18.3617 8.90976C18.4391 9.72891 18.4531 9.65508 18.207 9.76406C17.975 9.86953 17.5953 9.96094 17.3879 9.96094H17.2508L17.2789 9.80976C17.3281 9.53203 17.3 8.97305 17.2227 8.67773C16.9977 7.80586 16.3648 7.07461 15.5527 6.74765C15.4473 6.70195 15.3488 6.65625 15.3348 6.6457C15.2996 6.60703 15.5 6.35039 15.7496 6.11133C16.0203 5.8582 16.4422 5.6332 16.7656 5.56992C16.8711 5.54883 16.9906 5.52422 17.0293 5.51719C17.1805 5.48906 17.402 5.49961 17.6516 5.54531ZM14.9937 6.68086L15.2434 6.77578L15.1801 6.91992C15.1449 6.99726 15.1062 7.12734 15.0957 7.20117C15.0746 7.33828 15.0746 7.3418 15.2363 7.42617C15.7988 7.72148 15.9465 8.48086 15.5316 8.95547C15.3137 9.20156 15.0887 9.30703 14.7617 9.30703C14.3398 9.31055 14.0094 9.11367 13.8195 8.75156C13.7422 8.60039 13.7246 8.52656 13.7246 8.29101C13.7246 8.04492 13.7387 7.98516 13.8301 7.81992C13.9426 7.61601 14.1641 7.42266 14.3609 7.35937C14.4453 7.33125 14.4875 7.29258 14.5016 7.22578C14.5402 7.03945 14.6984 6.58594 14.7195 6.58594C14.7336 6.58594 14.8566 6.62812 14.9937 6.68086ZM15.9922 9.60586C16.2172 9.76758 16.6391 9.92578 16.959 9.97148L17.2473 10.0102L17.1277 10.2773C17.0609 10.4215 17.0012 10.548 16.9941 10.5551C16.966 10.5797 16.3895 10.4426 16.1926 10.3617C16.0766 10.316 15.8656 10.207 15.7285 10.1191C15.3629 9.89062 15.2996 9.69023 15.5457 9.53555C15.6863 9.44766 15.8023 9.46875 15.9922 9.60586ZM23.6176 10.3301C23.7266 10.3863 23.7617 10.4461 23.7617 10.5902C23.7617 10.6641 23.6105 10.8363 22.9602 11.4832C22.0742 12.3656 22.0566 12.3762 21.8562 12.1758C21.7719 12.0879 21.7543 12.0492 21.7754 11.9719C21.8 11.8699 23.1641 10.4672 23.3574 10.3441C23.484 10.2633 23.491 10.2633 23.6176 10.3301ZM25.3367 12.0211C25.4562 12.1055 25.4949 12.232 25.4352 12.3445C25.407 12.3973 25.0449 12.777 24.6301 13.1848C23.9234 13.8879 23.8707 13.9336 23.7477 13.9336C23.6562 13.9336 23.593 13.909 23.5332 13.8457C23.3539 13.6699 23.375 13.6348 24.2469 12.7664C25.1082 11.9086 25.1434 11.884 25.3367 12.0211Z" fill="white"/>
<path d="M14.5895 7.85504C14.3118 7.91481 14.1606 8.23473 14.2872 8.49489C14.4454 8.82887 14.9235 8.857 15.1133 8.5441C15.3313 8.18903 15.0114 7.76715 14.5895 7.85504Z" fill="white"/>
</svg>
