<svg width="31" height="31" viewBox="0 0 31 31" fill="none" xmlns="http://www.w3.org/2000/svg">
<path d="M3.0369 0.83691C1.86502 1.15332 0.950958 2.06152 0.593536 3.26269C0.511504 3.5498 0.499786 4.57519 0.499786 13.8447C0.499786 25.1357 0.476348 24.3564 0.863067 25.165C1.12674 25.71 1.78885 26.3721 2.33377 26.6357C3.11893 27.0166 2.86111 26.999 8.77322 26.999H14.158L13.9295 26.6592C13.115 25.458 12.6111 24.0459 12.4471 22.5166C12.201 20.167 13.0681 17.5127 14.6619 15.749C15.8396 14.4482 17.0584 13.6396 18.658 13.1123C19.449 12.8486 20.1814 12.7139 21.1072 12.6611L21.7693 12.626V8.16113V3.69043L21.6346 3.22168C21.5584 2.96386 21.406 2.60058 21.2947 2.41308C21.0135 1.93261 20.451 1.39355 19.9763 1.14746C19.1736 0.725582 19.7185 0.74902 11.0994 0.754879C4.6365 0.754879 3.28885 0.772457 3.0369 0.83691ZM11.1756 5.99902C11.9373 6.55566 11.8553 7.63964 11.0174 8.09082C10.7888 8.21972 10.7361 8.21972 7.99979 8.21972C5.26346 8.21972 5.21072 8.21972 4.98221 8.09082C4.49588 7.833 4.28494 7.458 4.3201 6.9248C4.3494 6.46777 4.56033 6.12793 4.95291 5.92285L5.21072 5.78222L8.06424 5.7998L10.9178 5.81738L11.1756 5.99902ZM17.0877 10.833C17.574 10.9795 17.9607 11.4951 17.9607 11.999C17.9607 12.5029 17.574 13.0186 17.0877 13.165C16.783 13.2529 5.49197 13.2588 5.16971 13.165C4.90018 13.0889 4.53104 12.7725 4.40213 12.5029C4.28494 12.251 4.27908 11.7529 4.39627 11.5068C4.52518 11.2373 4.84158 10.9502 5.10525 10.8564C5.40994 10.7451 16.7303 10.7275 17.0877 10.833ZM11.9314 15.8076C12.658 15.9482 13.1092 16.6396 12.9158 17.3193C12.8221 17.6592 12.4353 18.0576 12.1189 18.1514C11.9607 18.1982 10.8826 18.21 8.48611 18.1982L5.08182 18.1807L4.824 17.999C3.93924 17.3545 4.22635 16.0186 5.30447 15.8018C5.63846 15.7373 11.574 15.7432 11.9314 15.8076Z" fill="#F74682"/>
<path d="M20.3164 15.1866C18.9043 15.4561 17.7559 16.0538 16.7832 17.0323C15.4473 18.3682 14.791 20.0616 14.8731 21.9834C14.9141 22.9678 15.0957 23.7002 15.5234 24.5674C16.5547 26.6651 18.4649 27.9952 20.8027 28.2413C22.1504 28.3819 23.7149 28.0362 24.7871 27.3623L25.0801 27.1807L26.7793 28.8741C27.8926 29.9815 28.5547 30.6026 28.6953 30.6612C29.0293 30.7959 29.5508 30.7784 29.8613 30.6143C30.2481 30.4092 30.459 30.0694 30.4883 29.6123C30.5293 28.9502 30.5352 28.9561 28.6484 27.0577L26.9317 25.3291L27.1133 25.0362C27.793 23.9522 28.1328 22.4053 27.9922 21.0518C27.8281 19.4756 27.1836 18.1163 26.0762 17.0088C25.2734 16.212 24.1895 15.5909 23.0762 15.2979C22.3613 15.1163 21.002 15.0577 20.3164 15.1866ZM22.3848 17.7764C22.8477 17.8877 23.6035 18.2627 23.9668 18.5674C24.6699 19.1475 25.127 19.8799 25.3496 20.7881C25.7598 22.4229 24.9863 24.2334 23.4863 25.1416C21.5469 26.3252 18.9512 25.5811 17.8789 23.542C17.5274 22.8799 17.416 22.3467 17.4453 21.5264C17.4688 20.9229 17.4981 20.7471 17.6504 20.3487C17.9434 19.5635 18.3887 18.9541 19.0156 18.4795C20 17.7471 21.2012 17.4952 22.3848 17.7764Z" fill="#F74682"/>
</svg>
