<svg width="20" height="21" viewBox="0 0 20 21" fill="none" xmlns="http://www.w3.org/2000/svg">
<g clip-path="url(#clip0_93_1535)">
<path d="M7.8634 0.0568848C7.46497 0.181885 7.10169 0.506104 6.92981 0.877197C6.87122 1.0022 6.79309 1.34595 6.71497 1.78345C6.64856 2.16626 6.56653 2.55298 6.52747 2.64282C6.35559 3.02954 5.9845 3.28345 5.547 3.3147C5.30872 3.33032 5.25403 3.3147 4.58997 3.0647C3.90247 2.80688 3.87903 2.79907 3.51575 2.79907C3.00012 2.79907 2.76184 2.89673 2.422 3.24048C2.20325 3.46313 2.0509 3.70142 1.33606 4.95532C0.875124 5.7561 0.468874 6.47485 0.429811 6.55688C0.234499 6.95923 0.250124 7.5022 0.468874 7.92798C0.609499 8.20532 0.707155 8.30298 1.32044 8.81079C1.97278 9.34985 2.10559 9.54907 2.10559 10.0022C2.10559 10.4553 1.97278 10.6545 1.32044 11.1936C0.707155 11.7014 0.609499 11.803 0.468874 12.0764C0.312624 12.3811 0.257936 12.7209 0.312624 13.0413C0.367311 13.3694 0.351686 13.3381 1.33606 15.0491C2.0509 16.303 2.20325 16.5413 2.422 16.7639C2.76184 17.1077 3.00012 17.2053 3.51575 17.2053C3.87903 17.2053 3.90247 17.1975 4.58997 16.9397C5.25403 16.6897 5.30872 16.6741 5.547 16.6897C5.9845 16.7209 6.35559 16.9749 6.52747 17.3616C6.56653 17.4514 6.64856 17.8381 6.71497 18.2209C6.79309 18.6663 6.87122 19.0022 6.93372 19.1311C7.05872 19.4045 7.39856 19.7444 7.68372 19.8772L7.91028 19.9827H10.0001H12.09L12.3165 19.8772C12.6017 19.7444 12.9415 19.4045 13.0665 19.1311C13.129 19.0022 13.2072 18.6663 13.2853 18.2209C13.3517 17.8381 13.4337 17.4514 13.4728 17.3616C13.6447 16.9749 14.0157 16.7209 14.4532 16.6897C14.6915 16.6741 14.7462 16.6897 15.4103 16.9397C16.0978 17.1975 16.1212 17.2053 16.4845 17.2053C17.0001 17.2053 17.2384 17.1077 17.5782 16.7639C17.797 16.5413 17.9493 16.303 18.6642 15.0569C19.1212 14.26 19.5275 13.5374 19.5665 13.4514C19.7618 13.053 19.7462 12.4983 19.5314 12.0803C19.3907 11.7991 19.2931 11.7014 18.6798 11.1936C18.0275 10.6545 17.8947 10.4553 17.8947 10.0022C17.8947 9.5686 18.0353 9.33813 18.5743 8.90063C19.4142 8.21313 19.6056 7.96313 19.6876 7.4436C19.7345 7.14673 19.6876 6.80298 19.5665 6.55298C19.5275 6.46704 19.1212 5.74438 18.6642 4.94751C17.9493 3.70142 17.797 3.46313 17.5782 3.24048C17.2384 2.89673 17.0001 2.79907 16.4845 2.79907C16.1212 2.79907 16.0978 2.80688 15.4103 3.0647C14.7462 3.3147 14.6915 3.33032 14.4532 3.3147C14.0157 3.28345 13.6447 3.02954 13.4728 2.64282C13.4337 2.55298 13.3517 2.16626 13.2853 1.77954C13.1915 1.24438 13.1368 1.01782 13.047 0.834229C12.9064 0.549072 12.6173 0.271729 12.3048 0.123291L12.09 0.0217285L10.0587 0.013916C8.45716 0.00610352 7.99231 0.0178223 7.8634 0.0568848ZM11.715 2.13892C11.8204 2.80298 11.9376 3.20923 12.1173 3.52954C12.6017 4.38892 13.5197 4.92407 14.5118 4.92407C14.9376 4.92407 15.2462 4.84985 15.9611 4.58423L16.4728 4.38892L17.2853 5.79517C17.9572 6.95923 18.0861 7.20532 18.0431 7.24438C18.0118 7.27173 17.7892 7.45532 17.5509 7.65454C16.9845 8.11938 16.7931 8.33813 16.5782 8.77173C16.3751 9.18188 16.2892 9.54126 16.2892 10.0022C16.2892 10.4631 16.3751 10.8225 16.5782 11.2327C16.7931 11.6663 16.9845 11.885 17.5509 12.3499C17.7892 12.5491 18.0118 12.7327 18.0431 12.76C18.0861 12.7991 17.9572 13.0452 17.2853 14.2092L16.4728 15.6155L15.9611 15.4202C15.2462 15.1545 14.9376 15.0803 14.5118 15.0803C13.3048 15.0803 12.2618 15.842 11.8986 16.9944C11.8478 17.1545 11.7657 17.5452 11.715 17.8616L11.6251 18.4397H10.0001H8.37512L8.28528 17.8655C8.2345 17.5452 8.15247 17.1545 8.10169 16.9944C7.7384 15.842 6.69544 15.0803 5.4884 15.0803C5.06262 15.0803 4.75403 15.1545 4.03919 15.4202L3.52747 15.6155L2.71497 14.2092C2.047 13.0491 1.91419 12.7991 1.95715 12.76C1.9884 12.7327 2.21106 12.5491 2.44934 12.3499C3.01575 11.885 3.20715 11.6663 3.422 11.2327C3.62512 10.8225 3.71106 10.4631 3.71106 10.0022C3.71106 9.54126 3.62512 9.18188 3.422 8.77173C3.20715 8.33813 3.01575 8.11938 2.44934 7.65454C2.21106 7.45532 1.9884 7.27173 1.95715 7.24438C1.91419 7.20532 2.047 6.95532 2.71497 5.79517L3.52747 4.39282L4.08606 4.59985C4.87122 4.89282 5.08606 4.93579 5.60559 4.91235C6.3634 4.8811 6.97278 4.60376 7.50012 4.04126C7.94544 3.5686 8.12903 3.12329 8.28528 2.13892L8.37512 1.5647H10.0001H11.6251L11.715 2.13892Z" fill="#1D3A70"/>
<path d="M9.21875 6.21308C7.39453 6.60371 6.13281 8.15449 6.13281 10.0021C6.13281 11.8889 7.47266 13.4865 9.32422 13.8107C11.7031 14.2248 13.8672 12.4123 13.8672 10.0021C13.8672 8.12715 12.5547 6.54512 10.7031 6.19746C10.2773 6.11543 9.63672 6.12324 9.21875 6.21308ZM10.5859 7.81855C10.9844 7.92793 11.2188 8.06074 11.5352 8.35762C12.4648 9.23262 12.5117 10.6154 11.6445 11.5373C10.7656 12.467 9.38672 12.5139 8.46484 11.6467C7.48828 10.7248 7.48828 9.27558 8.46484 8.35762C9.05078 7.80683 9.83203 7.60762 10.5859 7.81855Z" fill="#1D3A70"/>
</g>
<defs>
<clipPath id="clip0_93_1535">
<rect width="20" height="20" fill="white" transform="translate(0 0.00219727)"/>
</clipPath>
</defs>
</svg>
