<svg width="73" height="73" viewBox="0 0 73 73" fill="none" xmlns="http://www.w3.org/2000/svg">
<g filter="url(#filter0_d_75_2551)">
<circle cx="32.5" cy="28.5" r="21" stroke="#C9CFDA"/>
</g>
<path d="M32.1874 20.1095L32.0116 20.1993L30.7812 22.6759C30.1054 24.0353 29.5312 25.172 29.5077 25.1954C29.4882 25.2189 28.2656 25.4103 26.7929 25.6212C23.8085 26.0509 23.8359 26.047 23.6835 26.3517C23.5741 26.5626 23.5702 26.7111 23.6679 26.9181C23.7187 27.0275 24.332 27.6447 25.6952 28.9689C26.9296 30.1681 27.6484 30.8907 27.6523 30.9415C27.6562 30.9845 27.4531 32.1954 27.207 33.6329C26.9609 35.0704 26.7577 36.3087 26.7577 36.379C26.7577 36.5665 26.8906 36.797 27.0507 36.8986C27.1679 36.9728 27.2304 36.9806 27.4335 36.9689C27.664 36.9493 27.8124 36.879 30.0898 35.6759L32.4999 34.4064L34.914 35.672C36.2382 36.3712 37.3906 36.9572 37.4726 36.9728C37.8632 37.0626 38.2421 36.7736 38.2421 36.3868C38.2421 36.3087 38.039 35.0665 37.7929 33.629C37.5468 32.1876 37.3437 30.9806 37.3437 30.9493C37.3437 30.9142 38.2304 30.0197 39.3163 28.965C41.3281 27.0001 41.4062 26.9142 41.4062 26.6329C41.4062 26.5743 41.3671 26.4454 41.3202 26.3517C41.164 26.0431 41.1952 26.0509 38.1835 25.6173C36.7031 25.4025 35.4843 25.215 35.4765 25.1954C35.4687 25.1759 34.9062 24.0431 34.2265 22.6798L32.9882 20.1993L32.8124 20.1095C32.7187 20.0626 32.5781 20.0236 32.4999 20.0236C32.4218 20.0236 32.2812 20.0626 32.1874 20.1095Z" fill="#C9CFDA"/>
<defs>
<filter id="filter0_d_75_2551" x="0" y="0" width="73" height="73" filterUnits="userSpaceOnUse" color-interpolation-filters="sRGB">
<feFlood flood-opacity="0" result="BackgroundImageFix"/>
<feColorMatrix in="SourceAlpha" type="matrix" values="0 0 0 0 0 0 0 0 0 0 0 0 0 0 0 0 0 0 127 0" result="hardAlpha"/>
<feOffset dx="4" dy="8"/>
<feGaussianBlur stdDeviation="7.5"/>
<feColorMatrix type="matrix" values="0 0 0 0 0.94902 0 0 0 0 0.231373 0 0 0 0 0.333333 0 0 0 0.2 0"/>
<feBlend mode="normal" in2="BackgroundImageFix" result="effect1_dropShadow_75_2551"/>
<feBlend mode="normal" in="SourceGraphic" in2="effect1_dropShadow_75_2551" result="shape"/>
</filter>
</defs>
</svg>
