<svg width="30" height="31" viewBox="0 0 30 31" fill="none" xmlns="http://www.w3.org/2000/svg">
<path d="M14.5308 2.914L14.2671 3.04877L12.4214 6.76361C11.4077 8.80267 10.5464 10.5077 10.5112 10.5429C10.4819 10.5781 8.64796 10.8652 6.43898 11.1816C1.96242 11.8261 2.00343 11.8202 1.77492 12.2773C1.61085 12.5937 1.605 12.8163 1.75148 13.1269C1.82765 13.291 2.74757 14.2167 4.7925 16.2031C6.64406 18.0019 7.72218 19.0859 7.72804 19.162C7.7339 19.2265 7.42921 21.0429 7.06007 23.1992C6.69093 25.3554 6.38625 27.2128 6.38625 27.3183C6.38625 27.5995 6.58546 27.9453 6.8257 28.0976C7.00148 28.2089 7.09523 28.2206 7.39992 28.2031C7.74562 28.1738 7.96828 28.0683 11.3843 26.2636L14.9995 24.3593L18.6206 26.2578C20.6069 27.3066 22.3355 28.1855 22.4585 28.2089C23.0444 28.3437 23.6128 27.9101 23.6128 27.33C23.6128 27.2128 23.3081 25.3495 22.939 23.1933C22.5698 21.0312 22.2652 19.2206 22.2652 19.1738C22.2652 19.121 23.5952 17.7792 25.2241 16.1972C28.2417 13.2499 28.3589 13.121 28.3589 12.6992C28.3589 12.6113 28.3003 12.4179 28.23 12.2773C27.9956 11.8144 28.0425 11.8261 23.5249 11.1757C21.3042 10.8535 19.4761 10.5722 19.4644 10.5429C19.4527 10.5136 18.6089 8.81439 17.5894 6.76947L15.7319 3.04877L15.4683 2.914C15.3277 2.84369 15.1167 2.7851 14.9995 2.7851C14.8823 2.7851 14.6714 2.84369 14.5308 2.914Z" fill="#6074DA"/>
</svg>
