<svg width="73" height="74" viewBox="0 0 73 74" fill="none" xmlns="http://www.w3.org/2000/svg">
<g filter="url(#filter0_d_992_1728)">
<circle cx="32.5" cy="28.9863" r="21" stroke="white"/>
</g>
<path d="M32.1875 20.5957L32.0117 20.6855L30.7812 23.1621C30.1055 24.5215 29.5312 25.6582 29.5078 25.6816C29.4883 25.7051 28.2656 25.8965 26.793 26.1074C23.8086 26.5371 23.8359 26.5332 23.6836 26.8379C23.5742 27.0488 23.5703 27.1973 23.668 27.4043C23.7187 27.5137 24.332 28.1309 25.6953 29.4551C26.9297 30.6543 27.6484 31.377 27.6523 31.4277C27.6562 31.4707 27.4531 32.6816 27.207 34.1191C26.9609 35.5566 26.7578 36.7949 26.7578 36.8652C26.7578 37.0527 26.8906 37.2832 27.0508 37.3848C27.168 37.459 27.2305 37.4668 27.4336 37.4551C27.6641 37.4355 27.8125 37.3652 30.0898 36.1621L32.5 34.8926L34.9141 36.1582C36.2383 36.8574 37.3906 37.4434 37.4726 37.459C37.8633 37.5488 38.2422 37.2598 38.2422 36.873C38.2422 36.7949 38.0391 35.5527 37.793 34.1152C37.5469 32.6738 37.3437 31.4668 37.3437 31.4355C37.3437 31.4004 38.2305 30.5059 39.3164 29.4512C41.3281 27.4863 41.4062 27.4004 41.4062 27.1191C41.4062 27.0605 41.3672 26.9316 41.3203 26.8379C41.1641 26.5293 41.1953 26.5371 38.1836 26.1035C36.7031 25.8887 35.4844 25.7012 35.4766 25.6816C35.4687 25.6621 34.9062 24.5293 34.2266 23.166L32.9883 20.6855L32.8125 20.5957C32.7187 20.5488 32.5781 20.5098 32.5 20.5098C32.4219 20.5098 32.2812 20.5488 32.1875 20.5957Z" fill="white"/>
<defs>
<filter id="filter0_d_992_1728" x="0" y="0.486328" width="73" height="73" filterUnits="userSpaceOnUse" color-interpolation-filters="sRGB">
<feFlood flood-opacity="0" result="BackgroundImageFix"/>
<feColorMatrix in="SourceAlpha" type="matrix" values="0 0 0 0 0 0 0 0 0 0 0 0 0 0 0 0 0 0 127 0" result="hardAlpha"/>
<feOffset dx="4" dy="8"/>
<feGaussianBlur stdDeviation="7.5"/>
<feColorMatrix type="matrix" values="0 0 0 0 0.94902 0 0 0 0 0.231373 0 0 0 0 0.333333 0 0 0 0.2 0"/>
<feBlend mode="normal" in2="BackgroundImageFix" result="effect1_dropShadow_992_1728"/>
<feBlend mode="normal" in="SourceGraphic" in2="effect1_dropShadow_992_1728" result="shape"/>
</filter>
</defs>
</svg>
