<svg width="20" height="21" viewBox="0 0 20 21" fill="none" xmlns="http://www.w3.org/2000/svg">
<g clip-path="url(#clip0_79_3111)">
<path d="M7.69531 0.527866C6.50391 0.594273 4.80859 0.793491 4.21875 0.934116C3.67188 1.06302 3.03516 1.3638 2.5 1.74271C1.93359 2.14896 1.23438 2.9224 0.929688 3.4888C0.550781 4.18412 0.429688 4.57865 0.292969 5.52005C0.0742188 7.04349 0 8.18802 0 10.0708C0 10.856 0.0195312 11.7779 0.0390625 12.1216C0.121094 13.399 0.285156 14.7857 0.433594 15.4146C0.808594 17.0279 2.24219 18.5669 3.875 19.1099C4.62891 19.3638 6.57812 19.5865 8.48438 19.6333C9.64062 19.6646 11.4531 19.6333 12.1797 19.5669L12.6172 19.5279L12.8633 19.6958C13.3516 20.0357 13.7852 20.2349 14.3633 20.3872C14.7969 20.5005 15.7852 20.5318 16.2773 20.4458C17.5898 20.2193 18.7383 19.4029 19.4297 18.2154C19.6523 17.8247 19.8633 17.2466 19.9414 16.8013C20.0156 16.3677 20.0156 15.5201 19.9414 15.1255C19.8242 14.5122 19.5938 13.9536 19.2461 13.4341L19.0273 13.1099L19.0664 12.6958C19.1758 11.5513 19.1719 8.77396 19.0625 7.41459C18.9531 6.06693 18.7773 4.87552 18.6133 4.37943C18.375 3.6724 17.9688 3.01224 17.4102 2.43021C16.6797 1.66459 15.8086 1.14115 14.9141 0.93021C14.293 0.785679 12.9102 0.621616 11.6211 0.539585C11.0664 0.504429 8.24609 0.496616 7.69531 0.527866ZM10.9375 2.04349C12.6836 2.09037 14.4258 2.31693 15.0352 2.58255C15.9961 2.99662 16.8438 3.91068 17.1641 4.87552C17.3164 5.33646 17.4844 6.62162 17.582 8.05912C17.6289 8.78959 17.6445 11.4224 17.5977 11.7388L17.5703 11.938L17.2773 11.8013C17.1133 11.7271 16.8125 11.6177 16.6055 11.563C16.2617 11.4693 16.168 11.4615 15.4688 11.4615C14.7578 11.4615 14.6797 11.4693 14.3164 11.5708C13.2891 11.8521 12.3516 12.5044 11.7461 13.356C11.4883 13.7193 11.1875 14.3677 11.0664 14.8247C10.9727 15.1724 10.9609 15.274 10.9609 15.9497C10.957 16.7896 11.0156 17.1138 11.2734 17.7193C11.3516 17.899 11.4023 18.0552 11.3906 18.0708C11.332 18.1255 9.64844 18.1529 8.55469 18.1177C6.58984 18.0513 4.875 17.856 4.26953 17.6294C3.30859 17.2661 2.39453 16.3677 2.03906 15.4263C1.87109 14.9888 1.73438 14.1294 1.59375 12.5904C1.52344 11.8404 1.52344 8.39115 1.59375 7.57084C1.66016 6.79349 1.81641 5.56302 1.89453 5.19193C2.07031 4.34427 2.71484 3.44584 3.53125 2.90287C4.11328 2.51615 4.47656 2.39896 5.52734 2.26224C6.83203 2.09037 8.77344 1.97709 9.82422 2.01224C10.0195 2.01615 10.5195 2.03177 10.9375 2.04349ZM16.3984 13.0982C17.3867 13.4302 18.1445 14.2427 18.3984 15.2427C18.5039 15.6607 18.5039 16.274 18.3984 16.6958C17.8594 18.8326 15.3125 19.6919 13.5859 18.3208C13.1328 17.9576 12.7852 17.4615 12.5977 16.899C12.4531 16.4615 12.418 15.813 12.5195 15.3599C12.7734 14.2076 13.6211 13.3286 14.7656 13.0357C15.2109 12.9224 15.957 12.9497 16.3984 13.0982Z" fill="#1D3A70"/>
<path d="M4.51602 5.52002C3.91446 5.73486 3.85586 6.62549 4.42227 6.90283L4.59415 6.98486H9.5629C13.6488 6.98486 14.5551 6.97705 14.6606 6.93018C14.8988 6.83252 15.1176 6.49658 15.1176 6.22705C15.1176 5.91846 14.8598 5.58252 14.559 5.5083C14.2738 5.43408 4.71915 5.4458 4.51602 5.52002Z" fill="#1D3A70"/>
<path d="M4.4221 10.192C3.83226 10.4849 3.93382 11.4224 4.56664 11.5943C4.6721 11.6216 5.68382 11.6334 7.70335 11.6256C10.6018 11.6138 10.6877 11.6099 10.8166 11.5357C10.8909 11.4927 11.0041 11.3912 11.0705 11.3091C11.1799 11.1724 11.1916 11.1334 11.1916 10.8756C11.1916 10.6334 11.176 10.5709 11.0862 10.4341C11.0237 10.3404 10.9143 10.2427 10.8127 10.192C10.6409 10.1099 10.6174 10.1099 7.61351 10.1099C4.60179 10.1099 4.59007 10.1099 4.4221 10.192Z" fill="#1D3A70"/>
<path d="M15.3711 13.6138C15.3281 13.6216 15.2539 13.6372 15.207 13.6489C15.0781 13.6724 14.8398 13.895 14.7812 14.0434C14.7422 14.1372 14.7266 14.3911 14.7266 14.9927C14.7266 15.7427 14.7344 15.8286 14.8047 15.9692C15.0391 16.4263 15.7539 16.4888 16.0664 16.0786C16.2227 15.8755 16.2578 15.6177 16.2422 14.8442C16.2266 14.0747 16.207 14.0083 15.957 13.7895C15.8828 13.7192 15.7734 13.6567 15.7227 13.645C15.5273 13.6059 15.4492 13.5981 15.3711 13.6138Z" fill="#1D3A70"/>
<path d="M15.0547 16.8247C14.7734 16.895 14.7109 17.0318 14.7109 17.5786C14.7109 18.0396 14.7578 18.1607 14.9766 18.2661C15.1328 18.3443 15.8789 18.3364 16 18.2544C16.1953 18.1294 16.2305 18.0161 16.2305 17.5474C16.2305 17.0474 16.1797 16.9263 15.9336 16.8404C15.7891 16.7896 15.2461 16.7818 15.0547 16.8247Z" fill="#1D3A70"/>
</g>
<defs>
<clipPath id="clip0_79_3111">
<rect width="20" height="20" fill="white" transform="translate(0 0.500488)"/>
</clipPath>
</defs>
</svg>
