<svg width="30" height="30" viewBox="0 0 30 30" fill="none" xmlns="http://www.w3.org/2000/svg">
<rect width="30" height="30" rx="15" fill="#1F4C6B"/>
<path d="M11 19.7V10.3C11 10.2204 11.0316 10.1441 11.0879 10.0879C11.1441 10.0316 11.2204 10 11.3 10H17.126C17.2055 10.0001 17.2818 10.0317 17.338 10.088L18.912 11.662C18.94 11.69 18.9622 11.7232 18.9773 11.7597C18.9924 11.7963 19.0001 11.8354 19 11.875V19.7C19 19.7394 18.9922 19.7784 18.9772 19.8148C18.9621 19.8512 18.94 19.8843 18.9121 19.9121C18.8843 19.94 18.8512 19.9621 18.8148 19.9772C18.7784 19.9922 18.7394 20 18.7 20H11.3C11.2606 20 11.2216 19.9922 11.1852 19.9772C11.1488 19.9621 11.1157 19.94 11.0879 19.9121C11.06 19.8843 11.0379 19.8512 11.0228 19.8148C11.0078 19.7784 11 19.7394 11 19.7V19.7Z" stroke="white" stroke-linecap="round" stroke-linejoin="round"/>
<path d="M17 11.7001V10.1771C17.0001 10.1421 17.0105 10.1079 17.0299 10.0789C17.0494 10.0498 17.077 10.0272 17.1093 10.0138C17.1416 10.0005 17.1772 9.99695 17.2114 10.0038C17.2457 10.0106 17.2772 10.0274 17.302 10.0521L18.948 11.6981C18.9729 11.7227 18.99 11.7542 18.9969 11.7886C19.0038 11.823 19.0004 11.8587 18.987 11.8911C18.9736 11.9235 18.9508 11.9511 18.9216 11.9705C18.8924 11.99 18.8581 12.0002 18.823 12.0001H17.3C17.2204 12.0001 17.1441 11.9684 17.0879 11.9122C17.0316 11.8559 17 11.7796 17 11.7001V11.7001Z" stroke="white" stroke-linecap="round" stroke-linejoin="round"/>
</svg>
