<svg width="20" height="20" viewBox="0 0 20 20" fill="none" xmlns="http://www.w3.org/2000/svg">
<circle cx="10.0198" cy="10.4133" r="5.99902" fill="white"/>
<path d="M8.82818 0.875734C5.34068 1.32105 2.40162 3.59917 1.10318 6.85699C0.0719319 9.44917 0.240682 12.4867 1.54849 14.9335C2.48599 16.682 3.99068 18.1398 5.75787 19.0117C8.80943 20.5164 12.5032 20.282 15.3251 18.407C18.2501 16.457 19.9001 13.0023 19.5626 9.53823C19.1266 5.04761 15.7469 1.50386 11.3219 0.899172C10.7547 0.819485 9.36256 0.805422 8.82818 0.875734ZM10.3047 4.7148C10.5672 4.84136 14.8938 9.18198 14.9922 9.41636C15.0813 9.63198 15.0813 9.83823 14.9969 10.0023C14.8751 10.2273 14.111 10.9445 13.9376 10.996C13.5907 11.0945 13.4829 11.0242 12.4141 9.96011C11.8704 9.42105 11.411 8.98042 11.3922 8.98042C11.3735 8.98042 11.3594 10.4945 11.3594 12.3414C11.3594 15.5945 11.3547 15.7117 11.2657 15.857C11.0829 16.157 11.0126 16.1757 10.0469 16.1757C9.06256 16.1757 8.936 16.1476 8.77193 15.8757L8.66412 15.707L8.65006 12.3367L8.63599 8.96167L7.64224 9.95073C6.78443 10.8085 6.62037 10.9492 6.44224 10.996C6.11881 11.0804 5.91256 10.9773 5.43912 10.4851C4.98912 10.0164 4.90474 9.83823 4.98912 9.51948C5.03131 9.36011 5.35474 9.01323 7.32349 7.04449C9.90162 4.45698 9.85474 4.49448 10.3047 4.7148Z" fill="#F74682"/>
</svg>
